M48
; DRILL file {KiCad 5.1.10} date Thu Jun 17 01:01:53 2021
; FORMAT={-:-/ absolute / metric / decimal}
; #@! TF.CreationDate,2021-06-17T01:01:53-05:00
; #@! TF.GenerationSoftware,Kicad,Pcbnew,5.1.10
; #@! TF.FileFunction,Plated,1,2,PTH
FMAT,2
METRIC
T1C0.400
T2C0.610
T3C0.660
T4C1.000
%
G90
G05
T1
X93.269Y-92.812
X94.386Y-89.56
X97.638Y-95.606
X98.171Y-93.726
X98.298Y-88.138
X98.425Y-91.44
X98.933Y-90.002
X99.314Y-92.405
X99.918Y-91.226
X100.482Y-93.116
X100.838Y-88.552
X101.6Y-93.044
X102.616Y-95.453
X102.997Y-91.059
X104.648Y-88.595
X107.569Y-93.98
T3
X94.947Y-87.228
X94.947Y-93.008
T4
X110.49Y-83.947
X110.49Y-86.487
X110.49Y-89.027
X110.49Y-91.567
X110.49Y-94.107
X110.49Y-96.647
T2
G00X90.997Y-85.798
M15
G01X91.597Y-85.798
M16
G05
G00X90.997Y-94.438
M15
G01X91.597Y-94.438
M16
G05
G00X94.927Y-85.798
M15
G01X96.027Y-85.798
M16
G05
G00X94.927Y-94.438
M15
G01X96.027Y-94.438
M16
G05
T0
M30
