%TF.GenerationSoftware,KiCad,Pcbnew,5.1.10*%
%TF.CreationDate,2021-06-17T01:01:51-05:00*%
%TF.ProjectId,usbttl,75736274-746c-42e6-9b69-6361645f7063,rev?*%
%TF.SameCoordinates,Original*%
%TF.FileFunction,Copper,L1,Top*%
%TF.FilePolarity,Positive*%
%FSLAX46Y46*%
G04 Gerber Fmt 4.6, Leading zero omitted, Abs format (unit mm)*
G04 Created by KiCad (PCBNEW 5.1.10) date 2021-06-17 01:01:51*
%MOMM*%
%LPD*%
G01*
G04 APERTURE LIST*
%TA.AperFunction,ComponentPad*%
%ADD10O,1.700000X1.700000*%
%TD*%
%TA.AperFunction,ComponentPad*%
%ADD11R,1.700000X1.700000*%
%TD*%
%TA.AperFunction,SMDPad,CuDef*%
%ADD12R,2.600000X2.600000*%
%TD*%
%TA.AperFunction,ComponentPad*%
%ADD13O,1.701800X1.117600*%
%TD*%
%TA.AperFunction,ComponentPad*%
%ADD14O,2.209800X1.117600*%
%TD*%
%TA.AperFunction,SMDPad,CuDef*%
%ADD15R,1.447800X0.304800*%
%TD*%
%TA.AperFunction,ComponentPad*%
%ADD16C,0.914400*%
%TD*%
%TA.AperFunction,SMDPad,CuDef*%
%ADD17R,1.447800X0.609600*%
%TD*%
%TA.AperFunction,ViaPad*%
%ADD18C,0.800000*%
%TD*%
%TA.AperFunction,Conductor*%
%ADD19C,0.250000*%
%TD*%
%TA.AperFunction,Conductor*%
%ADD20C,0.500000*%
%TD*%
%TA.AperFunction,Conductor*%
%ADD21C,0.254000*%
%TD*%
%TA.AperFunction,Conductor*%
%ADD22C,0.100000*%
%TD*%
G04 APERTURE END LIST*
D10*
%TO.P,J2,6*%
%TO.N,/DTR*%
X110490000Y-83947000D03*
%TO.P,J2,5*%
%TO.N,/TX*%
X110490000Y-86487000D03*
%TO.P,J2,4*%
%TO.N,/RX*%
X110490000Y-89027000D03*
%TO.P,J2,3*%
%TO.N,/RTS*%
X110490000Y-91567000D03*
%TO.P,J2,2*%
%TO.N,+3V3*%
X110490000Y-94107000D03*
D11*
%TO.P,J2,1*%
%TO.N,GND*%
X110490000Y-96647000D03*
%TD*%
%TO.P,U1,1*%
%TO.N,Net-(U1-Pad1)*%
%TA.AperFunction,SMDPad,CuDef*%
G36*
G01*
X102806000Y-87839500D02*
X102806000Y-87714500D01*
G75*
G02*
X102868500Y-87652000I62500J0D01*
G01*
X103568500Y-87652000D01*
G75*
G02*
X103631000Y-87714500I0J-62500D01*
G01*
X103631000Y-87839500D01*
G75*
G02*
X103568500Y-87902000I-62500J0D01*
G01*
X102868500Y-87902000D01*
G75*
G02*
X102806000Y-87839500I0J62500D01*
G01*
G37*
%TD.AperFunction*%
%TO.P,U1,2*%
%TO.N,GND*%
%TA.AperFunction,SMDPad,CuDef*%
G36*
G01*
X102806000Y-88339500D02*
X102806000Y-88214500D01*
G75*
G02*
X102868500Y-88152000I62500J0D01*
G01*
X103568500Y-88152000D01*
G75*
G02*
X103631000Y-88214500I0J-62500D01*
G01*
X103631000Y-88339500D01*
G75*
G02*
X103568500Y-88402000I-62500J0D01*
G01*
X102868500Y-88402000D01*
G75*
G02*
X102806000Y-88339500I0J62500D01*
G01*
G37*
%TD.AperFunction*%
%TO.P,U1,3*%
%TO.N,/D+*%
%TA.AperFunction,SMDPad,CuDef*%
G36*
G01*
X102806000Y-88839500D02*
X102806000Y-88714500D01*
G75*
G02*
X102868500Y-88652000I62500J0D01*
G01*
X103568500Y-88652000D01*
G75*
G02*
X103631000Y-88714500I0J-62500D01*
G01*
X103631000Y-88839500D01*
G75*
G02*
X103568500Y-88902000I-62500J0D01*
G01*
X102868500Y-88902000D01*
G75*
G02*
X102806000Y-88839500I0J62500D01*
G01*
G37*
%TD.AperFunction*%
%TO.P,U1,4*%
%TO.N,/D-*%
%TA.AperFunction,SMDPad,CuDef*%
G36*
G01*
X102806000Y-89339500D02*
X102806000Y-89214500D01*
G75*
G02*
X102868500Y-89152000I62500J0D01*
G01*
X103568500Y-89152000D01*
G75*
G02*
X103631000Y-89214500I0J-62500D01*
G01*
X103631000Y-89339500D01*
G75*
G02*
X103568500Y-89402000I-62500J0D01*
G01*
X102868500Y-89402000D01*
G75*
G02*
X102806000Y-89339500I0J62500D01*
G01*
G37*
%TD.AperFunction*%
%TO.P,U1,5*%
%TO.N,+3V3*%
%TA.AperFunction,SMDPad,CuDef*%
G36*
G01*
X102806000Y-89839500D02*
X102806000Y-89714500D01*
G75*
G02*
X102868500Y-89652000I62500J0D01*
G01*
X103568500Y-89652000D01*
G75*
G02*
X103631000Y-89714500I0J-62500D01*
G01*
X103631000Y-89839500D01*
G75*
G02*
X103568500Y-89902000I-62500J0D01*
G01*
X102868500Y-89902000D01*
G75*
G02*
X102806000Y-89839500I0J62500D01*
G01*
G37*
%TD.AperFunction*%
%TO.P,U1,6*%
%TA.AperFunction,SMDPad,CuDef*%
G36*
G01*
X102806000Y-90339500D02*
X102806000Y-90214500D01*
G75*
G02*
X102868500Y-90152000I62500J0D01*
G01*
X103568500Y-90152000D01*
G75*
G02*
X103631000Y-90214500I0J-62500D01*
G01*
X103631000Y-90339500D01*
G75*
G02*
X103568500Y-90402000I-62500J0D01*
G01*
X102868500Y-90402000D01*
G75*
G02*
X102806000Y-90339500I0J62500D01*
G01*
G37*
%TD.AperFunction*%
%TO.P,U1,7*%
%TO.N,+5V*%
%TA.AperFunction,SMDPad,CuDef*%
G36*
G01*
X103781000Y-91314500D02*
X103781000Y-90614500D01*
G75*
G02*
X103843500Y-90552000I62500J0D01*
G01*
X103968500Y-90552000D01*
G75*
G02*
X104031000Y-90614500I0J-62500D01*
G01*
X104031000Y-91314500D01*
G75*
G02*
X103968500Y-91377000I-62500J0D01*
G01*
X103843500Y-91377000D01*
G75*
G02*
X103781000Y-91314500I0J62500D01*
G01*
G37*
%TD.AperFunction*%
%TO.P,U1,8*%
%TO.N,Net-(R4-Pad1)*%
%TA.AperFunction,SMDPad,CuDef*%
G36*
G01*
X104281000Y-91314500D02*
X104281000Y-90614500D01*
G75*
G02*
X104343500Y-90552000I62500J0D01*
G01*
X104468500Y-90552000D01*
G75*
G02*
X104531000Y-90614500I0J-62500D01*
G01*
X104531000Y-91314500D01*
G75*
G02*
X104468500Y-91377000I-62500J0D01*
G01*
X104343500Y-91377000D01*
G75*
G02*
X104281000Y-91314500I0J62500D01*
G01*
G37*
%TD.AperFunction*%
%TO.P,U1,9*%
%TO.N,Net-(R3-Pad1)*%
%TA.AperFunction,SMDPad,CuDef*%
G36*
G01*
X104781000Y-91314500D02*
X104781000Y-90614500D01*
G75*
G02*
X104843500Y-90552000I62500J0D01*
G01*
X104968500Y-90552000D01*
G75*
G02*
X105031000Y-90614500I0J-62500D01*
G01*
X105031000Y-91314500D01*
G75*
G02*
X104968500Y-91377000I-62500J0D01*
G01*
X104843500Y-91377000D01*
G75*
G02*
X104781000Y-91314500I0J62500D01*
G01*
G37*
%TD.AperFunction*%
%TO.P,U1,10*%
%TO.N,Net-(U1-Pad10)*%
%TA.AperFunction,SMDPad,CuDef*%
G36*
G01*
X105281000Y-91314500D02*
X105281000Y-90614500D01*
G75*
G02*
X105343500Y-90552000I62500J0D01*
G01*
X105468500Y-90552000D01*
G75*
G02*
X105531000Y-90614500I0J-62500D01*
G01*
X105531000Y-91314500D01*
G75*
G02*
X105468500Y-91377000I-62500J0D01*
G01*
X105343500Y-91377000D01*
G75*
G02*
X105281000Y-91314500I0J62500D01*
G01*
G37*
%TD.AperFunction*%
%TO.P,U1,11*%
%TO.N,Net-(U1-Pad11)*%
%TA.AperFunction,SMDPad,CuDef*%
G36*
G01*
X105781000Y-91314500D02*
X105781000Y-90614500D01*
G75*
G02*
X105843500Y-90552000I62500J0D01*
G01*
X105968500Y-90552000D01*
G75*
G02*
X106031000Y-90614500I0J-62500D01*
G01*
X106031000Y-91314500D01*
G75*
G02*
X105968500Y-91377000I-62500J0D01*
G01*
X105843500Y-91377000D01*
G75*
G02*
X105781000Y-91314500I0J62500D01*
G01*
G37*
%TD.AperFunction*%
%TO.P,U1,12*%
%TO.N,Net-(U1-Pad12)*%
%TA.AperFunction,SMDPad,CuDef*%
G36*
G01*
X106281000Y-91314500D02*
X106281000Y-90614500D01*
G75*
G02*
X106343500Y-90552000I62500J0D01*
G01*
X106468500Y-90552000D01*
G75*
G02*
X106531000Y-90614500I0J-62500D01*
G01*
X106531000Y-91314500D01*
G75*
G02*
X106468500Y-91377000I-62500J0D01*
G01*
X106343500Y-91377000D01*
G75*
G02*
X106281000Y-91314500I0J62500D01*
G01*
G37*
%TD.AperFunction*%
%TO.P,U1,13*%
%TO.N,Net-(U1-Pad13)*%
%TA.AperFunction,SMDPad,CuDef*%
G36*
G01*
X106681000Y-90339500D02*
X106681000Y-90214500D01*
G75*
G02*
X106743500Y-90152000I62500J0D01*
G01*
X107443500Y-90152000D01*
G75*
G02*
X107506000Y-90214500I0J-62500D01*
G01*
X107506000Y-90339500D01*
G75*
G02*
X107443500Y-90402000I-62500J0D01*
G01*
X106743500Y-90402000D01*
G75*
G02*
X106681000Y-90339500I0J62500D01*
G01*
G37*
%TD.AperFunction*%
%TO.P,U1,14*%
%TO.N,Net-(U1-Pad14)*%
%TA.AperFunction,SMDPad,CuDef*%
G36*
G01*
X106681000Y-89839500D02*
X106681000Y-89714500D01*
G75*
G02*
X106743500Y-89652000I62500J0D01*
G01*
X107443500Y-89652000D01*
G75*
G02*
X107506000Y-89714500I0J-62500D01*
G01*
X107506000Y-89839500D01*
G75*
G02*
X107443500Y-89902000I-62500J0D01*
G01*
X106743500Y-89902000D01*
G75*
G02*
X106681000Y-89839500I0J62500D01*
G01*
G37*
%TD.AperFunction*%
%TO.P,U1,15*%
%TO.N,Net-(U1-Pad15)*%
%TA.AperFunction,SMDPad,CuDef*%
G36*
G01*
X106681000Y-89339500D02*
X106681000Y-89214500D01*
G75*
G02*
X106743500Y-89152000I62500J0D01*
G01*
X107443500Y-89152000D01*
G75*
G02*
X107506000Y-89214500I0J-62500D01*
G01*
X107506000Y-89339500D01*
G75*
G02*
X107443500Y-89402000I-62500J0D01*
G01*
X106743500Y-89402000D01*
G75*
G02*
X106681000Y-89339500I0J62500D01*
G01*
G37*
%TD.AperFunction*%
%TO.P,U1,16*%
%TO.N,Net-(U1-Pad16)*%
%TA.AperFunction,SMDPad,CuDef*%
G36*
G01*
X106681000Y-88839500D02*
X106681000Y-88714500D01*
G75*
G02*
X106743500Y-88652000I62500J0D01*
G01*
X107443500Y-88652000D01*
G75*
G02*
X107506000Y-88714500I0J-62500D01*
G01*
X107506000Y-88839500D01*
G75*
G02*
X107443500Y-88902000I-62500J0D01*
G01*
X106743500Y-88902000D01*
G75*
G02*
X106681000Y-88839500I0J62500D01*
G01*
G37*
%TD.AperFunction*%
%TO.P,U1,17*%
%TO.N,Net-(U1-Pad17)*%
%TA.AperFunction,SMDPad,CuDef*%
G36*
G01*
X106681000Y-88339500D02*
X106681000Y-88214500D01*
G75*
G02*
X106743500Y-88152000I62500J0D01*
G01*
X107443500Y-88152000D01*
G75*
G02*
X107506000Y-88214500I0J-62500D01*
G01*
X107506000Y-88339500D01*
G75*
G02*
X107443500Y-88402000I-62500J0D01*
G01*
X106743500Y-88402000D01*
G75*
G02*
X106681000Y-88339500I0J62500D01*
G01*
G37*
%TD.AperFunction*%
%TO.P,U1,18*%
%TO.N,Net-(U1-Pad18)*%
%TA.AperFunction,SMDPad,CuDef*%
G36*
G01*
X106681000Y-87839500D02*
X106681000Y-87714500D01*
G75*
G02*
X106743500Y-87652000I62500J0D01*
G01*
X107443500Y-87652000D01*
G75*
G02*
X107506000Y-87714500I0J-62500D01*
G01*
X107506000Y-87839500D01*
G75*
G02*
X107443500Y-87902000I-62500J0D01*
G01*
X106743500Y-87902000D01*
G75*
G02*
X106681000Y-87839500I0J62500D01*
G01*
G37*
%TD.AperFunction*%
%TO.P,U1,19*%
%TO.N,/RTS*%
%TA.AperFunction,SMDPad,CuDef*%
G36*
G01*
X106281000Y-87439500D02*
X106281000Y-86739500D01*
G75*
G02*
X106343500Y-86677000I62500J0D01*
G01*
X106468500Y-86677000D01*
G75*
G02*
X106531000Y-86739500I0J-62500D01*
G01*
X106531000Y-87439500D01*
G75*
G02*
X106468500Y-87502000I-62500J0D01*
G01*
X106343500Y-87502000D01*
G75*
G02*
X106281000Y-87439500I0J62500D01*
G01*
G37*
%TD.AperFunction*%
%TO.P,U1,20*%
%TO.N,/RX*%
%TA.AperFunction,SMDPad,CuDef*%
G36*
G01*
X105781000Y-87439500D02*
X105781000Y-86739500D01*
G75*
G02*
X105843500Y-86677000I62500J0D01*
G01*
X105968500Y-86677000D01*
G75*
G02*
X106031000Y-86739500I0J-62500D01*
G01*
X106031000Y-87439500D01*
G75*
G02*
X105968500Y-87502000I-62500J0D01*
G01*
X105843500Y-87502000D01*
G75*
G02*
X105781000Y-87439500I0J62500D01*
G01*
G37*
%TD.AperFunction*%
%TO.P,U1,21*%
%TO.N,/TX*%
%TA.AperFunction,SMDPad,CuDef*%
G36*
G01*
X105281000Y-87439500D02*
X105281000Y-86739500D01*
G75*
G02*
X105343500Y-86677000I62500J0D01*
G01*
X105468500Y-86677000D01*
G75*
G02*
X105531000Y-86739500I0J-62500D01*
G01*
X105531000Y-87439500D01*
G75*
G02*
X105468500Y-87502000I-62500J0D01*
G01*
X105343500Y-87502000D01*
G75*
G02*
X105281000Y-87439500I0J62500D01*
G01*
G37*
%TD.AperFunction*%
%TO.P,U1,22*%
%TO.N,Net-(U1-Pad22)*%
%TA.AperFunction,SMDPad,CuDef*%
G36*
G01*
X104781000Y-87439500D02*
X104781000Y-86739500D01*
G75*
G02*
X104843500Y-86677000I62500J0D01*
G01*
X104968500Y-86677000D01*
G75*
G02*
X105031000Y-86739500I0J-62500D01*
G01*
X105031000Y-87439500D01*
G75*
G02*
X104968500Y-87502000I-62500J0D01*
G01*
X104843500Y-87502000D01*
G75*
G02*
X104781000Y-87439500I0J62500D01*
G01*
G37*
%TD.AperFunction*%
%TO.P,U1,23*%
%TO.N,/DTR*%
%TA.AperFunction,SMDPad,CuDef*%
G36*
G01*
X104281000Y-87439500D02*
X104281000Y-86739500D01*
G75*
G02*
X104343500Y-86677000I62500J0D01*
G01*
X104468500Y-86677000D01*
G75*
G02*
X104531000Y-86739500I0J-62500D01*
G01*
X104531000Y-87439500D01*
G75*
G02*
X104468500Y-87502000I-62500J0D01*
G01*
X104343500Y-87502000D01*
G75*
G02*
X104281000Y-87439500I0J62500D01*
G01*
G37*
%TD.AperFunction*%
%TO.P,U1,24*%
%TO.N,Net-(U1-Pad24)*%
%TA.AperFunction,SMDPad,CuDef*%
G36*
G01*
X103781000Y-87439500D02*
X103781000Y-86739500D01*
G75*
G02*
X103843500Y-86677000I62500J0D01*
G01*
X103968500Y-86677000D01*
G75*
G02*
X104031000Y-86739500I0J-62500D01*
G01*
X104031000Y-87439500D01*
G75*
G02*
X103968500Y-87502000I-62500J0D01*
G01*
X103843500Y-87502000D01*
G75*
G02*
X103781000Y-87439500I0J62500D01*
G01*
G37*
%TD.AperFunction*%
D12*
%TO.P,U1,25*%
%TO.N,GND*%
X105156000Y-89027000D03*
%TD*%
%TO.P,C1,2*%
%TO.N,GND*%
%TA.AperFunction,SMDPad,CuDef*%
G36*
G01*
X102446000Y-92910000D02*
X102786000Y-92910000D01*
G75*
G02*
X102926000Y-93050000I0J-140000D01*
G01*
X102926000Y-93330000D01*
G75*
G02*
X102786000Y-93470000I-140000J0D01*
G01*
X102446000Y-93470000D01*
G75*
G02*
X102306000Y-93330000I0J140000D01*
G01*
X102306000Y-93050000D01*
G75*
G02*
X102446000Y-92910000I140000J0D01*
G01*
G37*
%TD.AperFunction*%
%TO.P,C1,1*%
%TO.N,+5V*%
%TA.AperFunction,SMDPad,CuDef*%
G36*
G01*
X102446000Y-91950000D02*
X102786000Y-91950000D01*
G75*
G02*
X102926000Y-92090000I0J-140000D01*
G01*
X102926000Y-92370000D01*
G75*
G02*
X102786000Y-92510000I-140000J0D01*
G01*
X102446000Y-92510000D01*
G75*
G02*
X102306000Y-92370000I0J140000D01*
G01*
X102306000Y-92090000D01*
G75*
G02*
X102446000Y-91950000I140000J0D01*
G01*
G37*
%TD.AperFunction*%
%TD*%
%TO.P,C2,1*%
%TO.N,+5V*%
%TA.AperFunction,SMDPad,CuDef*%
G36*
G01*
X103589000Y-91950000D02*
X103929000Y-91950000D01*
G75*
G02*
X104069000Y-92090000I0J-140000D01*
G01*
X104069000Y-92370000D01*
G75*
G02*
X103929000Y-92510000I-140000J0D01*
G01*
X103589000Y-92510000D01*
G75*
G02*
X103449000Y-92370000I0J140000D01*
G01*
X103449000Y-92090000D01*
G75*
G02*
X103589000Y-91950000I140000J0D01*
G01*
G37*
%TD.AperFunction*%
%TO.P,C2,2*%
%TO.N,GND*%
%TA.AperFunction,SMDPad,CuDef*%
G36*
G01*
X103589000Y-92910000D02*
X103929000Y-92910000D01*
G75*
G02*
X104069000Y-93050000I0J-140000D01*
G01*
X104069000Y-93330000D01*
G75*
G02*
X103929000Y-93470000I-140000J0D01*
G01*
X103589000Y-93470000D01*
G75*
G02*
X103449000Y-93330000I0J140000D01*
G01*
X103449000Y-93050000D01*
G75*
G02*
X103589000Y-92910000I140000J0D01*
G01*
G37*
%TD.AperFunction*%
%TD*%
%TO.P,C3,1*%
%TO.N,GND*%
%TA.AperFunction,SMDPad,CuDef*%
G36*
G01*
X102151000Y-91438000D02*
X101811000Y-91438000D01*
G75*
G02*
X101671000Y-91298000I0J140000D01*
G01*
X101671000Y-91018000D01*
G75*
G02*
X101811000Y-90878000I140000J0D01*
G01*
X102151000Y-90878000D01*
G75*
G02*
X102291000Y-91018000I0J-140000D01*
G01*
X102291000Y-91298000D01*
G75*
G02*
X102151000Y-91438000I-140000J0D01*
G01*
G37*
%TD.AperFunction*%
%TO.P,C3,2*%
%TO.N,+3V3*%
%TA.AperFunction,SMDPad,CuDef*%
G36*
G01*
X102151000Y-90478000D02*
X101811000Y-90478000D01*
G75*
G02*
X101671000Y-90338000I0J140000D01*
G01*
X101671000Y-90058000D01*
G75*
G02*
X101811000Y-89918000I140000J0D01*
G01*
X102151000Y-89918000D01*
G75*
G02*
X102291000Y-90058000I0J-140000D01*
G01*
X102291000Y-90338000D01*
G75*
G02*
X102151000Y-90478000I-140000J0D01*
G01*
G37*
%TD.AperFunction*%
%TD*%
%TO.P,C4,2*%
%TO.N,+3V3*%
%TA.AperFunction,SMDPad,CuDef*%
G36*
G01*
X101135000Y-90478000D02*
X100795000Y-90478000D01*
G75*
G02*
X100655000Y-90338000I0J140000D01*
G01*
X100655000Y-90058000D01*
G75*
G02*
X100795000Y-89918000I140000J0D01*
G01*
X101135000Y-89918000D01*
G75*
G02*
X101275000Y-90058000I0J-140000D01*
G01*
X101275000Y-90338000D01*
G75*
G02*
X101135000Y-90478000I-140000J0D01*
G01*
G37*
%TD.AperFunction*%
%TO.P,C4,1*%
%TO.N,GND*%
%TA.AperFunction,SMDPad,CuDef*%
G36*
G01*
X101135000Y-91438000D02*
X100795000Y-91438000D01*
G75*
G02*
X100655000Y-91298000I0J140000D01*
G01*
X100655000Y-91018000D01*
G75*
G02*
X100795000Y-90878000I140000J0D01*
G01*
X101135000Y-90878000D01*
G75*
G02*
X101275000Y-91018000I0J-140000D01*
G01*
X101275000Y-91298000D01*
G75*
G02*
X101135000Y-91438000I-140000J0D01*
G01*
G37*
%TD.AperFunction*%
%TD*%
D13*
%TO.P,J1,15*%
%TO.N,N/C*%
X91297000Y-85798161D03*
D14*
%TO.P,J1,14*%
X95477000Y-94438225D03*
D15*
%TO.P,J1,A8*%
%TO.N,Net-(J1-PadA8)*%
X96393000Y-91368256D03*
%TO.P,J1,B5*%
%TO.N,Net-(J1-PadB5)*%
X96393000Y-91868382D03*
%TO.P,J1,A5*%
%TO.N,Net-(J1-PadA5)*%
X96393000Y-88868130D03*
%TO.P,J1,B8*%
%TO.N,Net-(J1-PadB8)*%
X96393000Y-88368004D03*
D13*
%TO.P,J1,16*%
%TO.N,N/C*%
X91297000Y-94438195D03*
D16*
%TO.P,J1,18*%
X94947000Y-93008192D03*
%TO.P,J1,17*%
X94947000Y-87228194D03*
D17*
%TO.P,J1,B1-A12*%
%TO.N,GND*%
X96393000Y-93368386D03*
D14*
%TO.P,J1,13*%
%TO.N,N/C*%
X95477000Y-85798161D03*
D17*
%TO.P,J1,B4-A9*%
%TO.N,+5V*%
X96393000Y-92568134D03*
D15*
%TO.P,J1,B6*%
%TO.N,/D+*%
X96393000Y-90868382D03*
%TO.P,J1,A7*%
%TO.N,/D-*%
X96393000Y-90368256D03*
%TO.P,J1,A6*%
%TO.N,/D+*%
X96393000Y-89868130D03*
%TO.P,J1,B7*%
%TO.N,/D-*%
X96393000Y-89368004D03*
D17*
%TO.P,J1,A4-B9*%
%TO.N,+5V*%
X96393000Y-87668252D03*
%TO.P,J1,A1-B12*%
%TO.N,GND*%
X96393000Y-86868000D03*
%TD*%
%TO.P,R1,1*%
%TO.N,GND*%
%TA.AperFunction,SMDPad,CuDef*%
G36*
G01*
X101607600Y-95798600D02*
X101287600Y-95798600D01*
G75*
G02*
X101127600Y-95638600I0J160000D01*
G01*
X101127600Y-95243600D01*
G75*
G02*
X101287600Y-95083600I160000J0D01*
G01*
X101607600Y-95083600D01*
G75*
G02*
X101767600Y-95243600I0J-160000D01*
G01*
X101767600Y-95638600D01*
G75*
G02*
X101607600Y-95798600I-160000J0D01*
G01*
G37*
%TD.AperFunction*%
%TO.P,R1,2*%
%TO.N,Net-(J1-PadA5)*%
%TA.AperFunction,SMDPad,CuDef*%
G36*
G01*
X101607600Y-94603600D02*
X101287600Y-94603600D01*
G75*
G02*
X101127600Y-94443600I0J160000D01*
G01*
X101127600Y-94048600D01*
G75*
G02*
X101287600Y-93888600I160000J0D01*
G01*
X101607600Y-93888600D01*
G75*
G02*
X101767600Y-94048600I0J-160000D01*
G01*
X101767600Y-94443600D01*
G75*
G02*
X101607600Y-94603600I-160000J0D01*
G01*
G37*
%TD.AperFunction*%
%TD*%
%TO.P,R2,1*%
%TO.N,GND*%
%TA.AperFunction,SMDPad,CuDef*%
G36*
G01*
X100490000Y-95798600D02*
X100170000Y-95798600D01*
G75*
G02*
X100010000Y-95638600I0J160000D01*
G01*
X100010000Y-95243600D01*
G75*
G02*
X100170000Y-95083600I160000J0D01*
G01*
X100490000Y-95083600D01*
G75*
G02*
X100650000Y-95243600I0J-160000D01*
G01*
X100650000Y-95638600D01*
G75*
G02*
X100490000Y-95798600I-160000J0D01*
G01*
G37*
%TD.AperFunction*%
%TO.P,R2,2*%
%TO.N,Net-(J1-PadB5)*%
%TA.AperFunction,SMDPad,CuDef*%
G36*
G01*
X100490000Y-94603600D02*
X100170000Y-94603600D01*
G75*
G02*
X100010000Y-94443600I0J160000D01*
G01*
X100010000Y-94048600D01*
G75*
G02*
X100170000Y-93888600I160000J0D01*
G01*
X100490000Y-93888600D01*
G75*
G02*
X100650000Y-94048600I0J-160000D01*
G01*
X100650000Y-94443600D01*
G75*
G02*
X100490000Y-94603600I-160000J0D01*
G01*
G37*
%TD.AperFunction*%
%TD*%
%TO.P,R3,1*%
%TO.N,Net-(R3-Pad1)*%
%TA.AperFunction,SMDPad,CuDef*%
G36*
G01*
X104947000Y-92858000D02*
X104947000Y-92308000D01*
G75*
G02*
X105147000Y-92108000I200000J0D01*
G01*
X105547000Y-92108000D01*
G75*
G02*
X105747000Y-92308000I0J-200000D01*
G01*
X105747000Y-92858000D01*
G75*
G02*
X105547000Y-93058000I-200000J0D01*
G01*
X105147000Y-93058000D01*
G75*
G02*
X104947000Y-92858000I0J200000D01*
G01*
G37*
%TD.AperFunction*%
%TO.P,R3,2*%
%TO.N,+3V3*%
%TA.AperFunction,SMDPad,CuDef*%
G36*
G01*
X106597000Y-92858000D02*
X106597000Y-92308000D01*
G75*
G02*
X106797000Y-92108000I200000J0D01*
G01*
X107197000Y-92108000D01*
G75*
G02*
X107397000Y-92308000I0J-200000D01*
G01*
X107397000Y-92858000D01*
G75*
G02*
X107197000Y-93058000I-200000J0D01*
G01*
X106797000Y-93058000D01*
G75*
G02*
X106597000Y-92858000I0J200000D01*
G01*
G37*
%TD.AperFunction*%
%TD*%
%TO.P,R4,2*%
%TO.N,+5V*%
%TA.AperFunction,SMDPad,CuDef*%
G36*
G01*
X103011000Y-94074000D02*
X103011000Y-94394000D01*
G75*
G02*
X102851000Y-94554000I-160000J0D01*
G01*
X102456000Y-94554000D01*
G75*
G02*
X102296000Y-94394000I0J160000D01*
G01*
X102296000Y-94074000D01*
G75*
G02*
X102456000Y-93914000I160000J0D01*
G01*
X102851000Y-93914000D01*
G75*
G02*
X103011000Y-94074000I0J-160000D01*
G01*
G37*
%TD.AperFunction*%
%TO.P,R4,1*%
%TO.N,Net-(R4-Pad1)*%
%TA.AperFunction,SMDPad,CuDef*%
G36*
G01*
X104206000Y-94074000D02*
X104206000Y-94394000D01*
G75*
G02*
X104046000Y-94554000I-160000J0D01*
G01*
X103651000Y-94554000D01*
G75*
G02*
X103491000Y-94394000I0J160000D01*
G01*
X103491000Y-94074000D01*
G75*
G02*
X103651000Y-93914000I160000J0D01*
G01*
X104046000Y-93914000D01*
G75*
G02*
X104206000Y-94074000I0J-160000D01*
G01*
G37*
%TD.AperFunction*%
%TD*%
%TO.P,R5,1*%
%TO.N,GND*%
%TA.AperFunction,SMDPad,CuDef*%
G36*
G01*
X106619000Y-94074000D02*
X106619000Y-94394000D01*
G75*
G02*
X106459000Y-94554000I-160000J0D01*
G01*
X106064000Y-94554000D01*
G75*
G02*
X105904000Y-94394000I0J160000D01*
G01*
X105904000Y-94074000D01*
G75*
G02*
X106064000Y-93914000I160000J0D01*
G01*
X106459000Y-93914000D01*
G75*
G02*
X106619000Y-94074000I0J-160000D01*
G01*
G37*
%TD.AperFunction*%
%TO.P,R5,2*%
%TO.N,Net-(R4-Pad1)*%
%TA.AperFunction,SMDPad,CuDef*%
G36*
G01*
X105424000Y-94074000D02*
X105424000Y-94394000D01*
G75*
G02*
X105264000Y-94554000I-160000J0D01*
G01*
X104869000Y-94554000D01*
G75*
G02*
X104709000Y-94394000I0J160000D01*
G01*
X104709000Y-94074000D01*
G75*
G02*
X104869000Y-93914000I160000J0D01*
G01*
X105264000Y-93914000D01*
G75*
G02*
X105424000Y-94074000I0J-160000D01*
G01*
G37*
%TD.AperFunction*%
%TD*%
D18*
%TO.N,GND*%
X101600000Y-93043990D03*
X104648000Y-88595200D03*
X99917981Y-91226324D03*
%TO.N,+5V*%
X98298000Y-88138000D03*
X98171000Y-93726000D03*
X99314000Y-92405200D03*
X102616000Y-95453200D03*
%TO.N,+3V3*%
X102997000Y-91059000D03*
X107569000Y-93980000D03*
%TO.N,Net-(J1-PadB5)*%
X93268800Y-92811600D03*
X97637600Y-95605600D03*
%TO.N,Net-(J1-PadA5)*%
X94386400Y-89560400D03*
X100482400Y-93116400D03*
%TO.N,/D+*%
X98933000Y-90002000D03*
X100838000Y-88552000D03*
X98425000Y-91440000D03*
%TD*%
D19*
%TO.N,GND*%
X101746010Y-93190000D02*
X101600000Y-93043990D01*
X102616000Y-93190000D02*
X101746010Y-93190000D01*
D20*
X96393000Y-93368386D02*
X96467186Y-93368386D01*
X96467186Y-93368386D02*
X97229599Y-94130799D01*
X97229599Y-94130799D02*
X97229599Y-94743601D01*
X97229599Y-94743601D02*
X96520000Y-95453200D01*
X96393000Y-86868000D02*
X98501200Y-86868000D01*
D19*
X103218500Y-88277000D02*
X102297800Y-88277000D01*
X102297800Y-88277000D02*
X101854000Y-87833200D01*
X105079800Y-89027000D02*
X104648000Y-88595200D01*
X105156000Y-89027000D02*
X105079800Y-89027000D01*
D20*
X99986305Y-91158000D02*
X99917981Y-91226324D01*
X100965000Y-91158000D02*
X99986305Y-91158000D01*
D19*
%TO.N,+5V*%
X103906000Y-92083000D02*
X103759000Y-92230000D01*
D20*
X96393000Y-92568134D02*
X98693866Y-92568134D01*
X102579990Y-92193990D02*
X102616000Y-92230000D01*
X98693866Y-92568134D02*
X99068010Y-92193990D01*
X97828252Y-87668252D02*
X98298000Y-88138000D01*
X96393000Y-87668252D02*
X97828252Y-87668252D01*
X99068010Y-92828990D02*
X99068010Y-92193990D01*
X98171000Y-93726000D02*
X99068010Y-92828990D01*
X99068010Y-92812970D02*
X99686990Y-92193990D01*
X99068010Y-92828990D02*
X99068010Y-92812970D01*
X99686990Y-92193990D02*
X102579990Y-92193990D01*
X99068010Y-92193990D02*
X99686990Y-92193990D01*
X103759000Y-92230000D02*
X102616000Y-92230000D01*
D19*
X103906000Y-90964500D02*
X103906000Y-92083000D01*
D20*
X99068010Y-92193990D02*
X99068010Y-92193990D01*
X102616000Y-94271500D02*
X102653500Y-94234000D01*
X102616000Y-95453200D02*
X102616000Y-94271500D01*
D19*
%TO.N,+3V3*%
X101044000Y-90277000D02*
X100965000Y-90198000D01*
X103218500Y-90277000D02*
X101044000Y-90277000D01*
X102402000Y-89777000D02*
X101981000Y-90198000D01*
X103218500Y-89777000D02*
X102402000Y-89777000D01*
D20*
X103218500Y-90277000D02*
X103218500Y-89948500D01*
X102997000Y-91059000D02*
X102997000Y-90170000D01*
X110363000Y-93980000D02*
X110490000Y-94107000D01*
D19*
X107950000Y-92583000D02*
X109347000Y-93980000D01*
X106997000Y-92583000D02*
X107950000Y-92583000D01*
D20*
X109347000Y-93980000D02*
X110363000Y-93980000D01*
X107569000Y-93980000D02*
X109347000Y-93980000D01*
D19*
%TO.N,Net-(J1-PadB5)*%
X94212018Y-91868382D02*
X93268800Y-92811600D01*
X96393000Y-91868382D02*
X94212018Y-91868382D01*
X97637600Y-95605600D02*
X98552000Y-95605600D01*
X99911500Y-94246100D02*
X100330000Y-94246100D01*
X98552000Y-95605600D02*
X99911500Y-94246100D01*
%TO.N,Net-(J1-PadA5)*%
X96393000Y-88868130D02*
X95078670Y-88868130D01*
X95078670Y-88868130D02*
X94386400Y-89560400D01*
X100482400Y-93116400D02*
X101295200Y-93929200D01*
%TO.N,/D+*%
X98799130Y-89868130D02*
X98933000Y-90002000D01*
X96393000Y-89868130D02*
X98799130Y-89868130D01*
X101063000Y-88777000D02*
X103218500Y-88777000D01*
X100838000Y-88552000D02*
X101063000Y-88777000D01*
X97853382Y-90868382D02*
X98425000Y-91440000D01*
X96393000Y-90868382D02*
X97853382Y-90868382D01*
%TO.N,/D-*%
X97663000Y-89059432D02*
X97354428Y-89368004D01*
X97663000Y-89027000D02*
X97663000Y-89059432D01*
X98171000Y-89281000D02*
X97917000Y-89027000D01*
X98679000Y-89281000D02*
X98171000Y-89281000D01*
X99314000Y-88646000D02*
X98679000Y-89281000D01*
X97354428Y-89368004D02*
X96393000Y-89368004D01*
X99822000Y-88646000D02*
X99314000Y-88646000D01*
X100453000Y-89277000D02*
X99822000Y-88646000D01*
X97917000Y-89027000D02*
X97663000Y-89027000D01*
X103218500Y-89277000D02*
X100453000Y-89277000D01*
X98584999Y-90727001D02*
X99391999Y-90727001D01*
X98226254Y-90368256D02*
X98584999Y-90727001D01*
X96393000Y-90368256D02*
X98226254Y-90368256D01*
X99391999Y-90727001D02*
X99822000Y-90297000D01*
X99822000Y-89908000D02*
X100453000Y-89277000D01*
X99822000Y-90297000D02*
X99822000Y-89908000D01*
%TO.N,/DTR*%
X104406000Y-86628978D02*
X104406000Y-87089500D01*
X107087978Y-83947000D02*
X104406000Y-86628978D01*
X110490000Y-83947000D02*
X107087978Y-83947000D01*
%TO.N,/RTS*%
X106406000Y-87089500D02*
X107663500Y-87089500D01*
X107663500Y-87089500D02*
X107950000Y-87376000D01*
X107950000Y-87376000D02*
X107950000Y-90297000D01*
X109220000Y-91567000D02*
X110490000Y-91567000D01*
X107950000Y-90297000D02*
X109220000Y-91567000D01*
%TO.N,/RX*%
X110490000Y-89027000D02*
X107696000Y-86233000D01*
X105906000Y-86628978D02*
X105906000Y-87089500D01*
X106301978Y-86233000D02*
X105906000Y-86628978D01*
X107696000Y-86233000D02*
X106301978Y-86233000D01*
%TO.N,/TX*%
X105406000Y-86492568D02*
X106173568Y-85725000D01*
X105406000Y-87089500D02*
X105406000Y-86492568D01*
X109728000Y-85725000D02*
X110490000Y-86487000D01*
X106173568Y-85725000D02*
X109728000Y-85725000D01*
%TO.N,Net-(R3-Pad1)*%
X104906000Y-92142000D02*
X105347000Y-92583000D01*
X104906000Y-90964500D02*
X104906000Y-92142000D01*
%TO.N,Net-(R4-Pad1)*%
X104406000Y-90964500D02*
X104406000Y-91047000D01*
X104406000Y-91047000D02*
X104394000Y-91059000D01*
X104406000Y-93676500D02*
X103848500Y-94234000D01*
X104406000Y-90964500D02*
X104406000Y-93676500D01*
X104406000Y-93676500D02*
X104406000Y-93865000D01*
X104775000Y-94234000D02*
X105066500Y-94234000D01*
X104406000Y-93865000D02*
X104775000Y-94234000D01*
%TD*%
D21*
%TO.N,GND*%
X111159659Y-80954625D02*
X111409429Y-81030035D01*
X111639792Y-81152522D01*
X111841980Y-81317422D01*
X112008286Y-81518450D01*
X112132378Y-81747954D01*
X112209531Y-81997195D01*
X112240000Y-82287089D01*
X112240001Y-98233711D01*
X112211375Y-98525660D01*
X112135965Y-98775429D01*
X112013477Y-99005794D01*
X111848579Y-99207979D01*
X111647546Y-99374288D01*
X111418046Y-99498378D01*
X111168805Y-99575531D01*
X110878911Y-99606000D01*
X90932279Y-99606000D01*
X90640340Y-99577375D01*
X90390571Y-99501965D01*
X90160206Y-99379477D01*
X89958021Y-99214579D01*
X89791712Y-99013546D01*
X89667622Y-98784046D01*
X89590469Y-98534805D01*
X89560000Y-98244911D01*
X89560000Y-97497000D01*
X109001928Y-97497000D01*
X109014188Y-97621482D01*
X109050498Y-97741180D01*
X109109463Y-97851494D01*
X109188815Y-97948185D01*
X109285506Y-98027537D01*
X109395820Y-98086502D01*
X109515518Y-98122812D01*
X109640000Y-98135072D01*
X110204250Y-98132000D01*
X110363000Y-97973250D01*
X110363000Y-96774000D01*
X110617000Y-96774000D01*
X110617000Y-97973250D01*
X110775750Y-98132000D01*
X111340000Y-98135072D01*
X111464482Y-98122812D01*
X111584180Y-98086502D01*
X111694494Y-98027537D01*
X111791185Y-97948185D01*
X111870537Y-97851494D01*
X111929502Y-97741180D01*
X111965812Y-97621482D01*
X111978072Y-97497000D01*
X111975000Y-96932750D01*
X111816250Y-96774000D01*
X110617000Y-96774000D01*
X110363000Y-96774000D01*
X109163750Y-96774000D01*
X109005000Y-96932750D01*
X109001928Y-97497000D01*
X89560000Y-97497000D01*
X89560000Y-94438195D01*
X89805324Y-94438195D01*
X89828374Y-94672221D01*
X89896636Y-94897253D01*
X90007489Y-95104644D01*
X90156672Y-95286423D01*
X90338451Y-95435606D01*
X90545842Y-95546459D01*
X90770874Y-95614721D01*
X90946256Y-95631995D01*
X91647744Y-95631995D01*
X91823126Y-95614721D01*
X92048158Y-95546459D01*
X92255549Y-95435606D01*
X92437328Y-95286423D01*
X92586511Y-95104644D01*
X92697364Y-94897253D01*
X92765626Y-94672221D01*
X92788676Y-94438195D01*
X92765626Y-94204169D01*
X92697364Y-93979137D01*
X92586511Y-93771746D01*
X92437328Y-93589967D01*
X92255549Y-93440784D01*
X92048158Y-93329931D01*
X91823126Y-93261669D01*
X91647744Y-93244395D01*
X90946256Y-93244395D01*
X90770874Y-93261669D01*
X90545842Y-93329931D01*
X90338451Y-93440784D01*
X90156672Y-93589967D01*
X90007489Y-93771746D01*
X89896636Y-93979137D01*
X89828374Y-94204169D01*
X89805324Y-94438195D01*
X89560000Y-94438195D01*
X89560000Y-92709661D01*
X92233800Y-92709661D01*
X92233800Y-92913539D01*
X92273574Y-93113498D01*
X92351595Y-93301856D01*
X92464863Y-93471374D01*
X92609026Y-93615537D01*
X92778544Y-93728805D01*
X92966902Y-93806826D01*
X93166861Y-93846600D01*
X93370739Y-93846600D01*
X93570698Y-93806826D01*
X93759056Y-93728805D01*
X93928574Y-93615537D01*
X93994912Y-93549199D01*
X94049323Y-93630632D01*
X93933489Y-93771776D01*
X93822636Y-93979167D01*
X93754374Y-94204199D01*
X93731324Y-94438225D01*
X93754374Y-94672251D01*
X93822636Y-94897283D01*
X93933489Y-95104674D01*
X94082672Y-95286453D01*
X94264451Y-95435636D01*
X94471842Y-95546489D01*
X94696874Y-95614751D01*
X94872256Y-95632025D01*
X96081744Y-95632025D01*
X96257126Y-95614751D01*
X96482158Y-95546489D01*
X96607396Y-95479548D01*
X96602600Y-95503661D01*
X96602600Y-95707539D01*
X96642374Y-95907498D01*
X96720395Y-96095856D01*
X96833663Y-96265374D01*
X96977826Y-96409537D01*
X97147344Y-96522805D01*
X97335702Y-96600826D01*
X97535661Y-96640600D01*
X97739539Y-96640600D01*
X97939498Y-96600826D01*
X98127856Y-96522805D01*
X98297374Y-96409537D01*
X98341311Y-96365600D01*
X98514678Y-96365600D01*
X98552000Y-96369276D01*
X98589322Y-96365600D01*
X98589333Y-96365600D01*
X98700986Y-96354603D01*
X98844247Y-96311146D01*
X98976276Y-96240574D01*
X99092001Y-96145601D01*
X99115804Y-96116597D01*
X99377475Y-95854926D01*
X99384188Y-95923082D01*
X99420498Y-96042780D01*
X99479463Y-96153094D01*
X99558815Y-96249785D01*
X99655506Y-96329137D01*
X99765820Y-96388102D01*
X99885518Y-96424412D01*
X100010000Y-96436672D01*
X100044250Y-96433600D01*
X100203000Y-96274850D01*
X100203000Y-95568100D01*
X100457000Y-95568100D01*
X100457000Y-96274850D01*
X100615750Y-96433600D01*
X100650000Y-96436672D01*
X100774482Y-96424412D01*
X100888800Y-96389734D01*
X101003118Y-96424412D01*
X101127600Y-96436672D01*
X101161850Y-96433600D01*
X101320600Y-96274850D01*
X101320600Y-95568100D01*
X100457000Y-95568100D01*
X100203000Y-95568100D01*
X100183000Y-95568100D01*
X100183000Y-95314100D01*
X100203000Y-95314100D01*
X100203000Y-95294100D01*
X100457000Y-95294100D01*
X100457000Y-95314100D01*
X101320600Y-95314100D01*
X101320600Y-95294100D01*
X101574600Y-95294100D01*
X101574600Y-95314100D01*
X101588392Y-95314100D01*
X101581000Y-95351261D01*
X101581000Y-95555139D01*
X101583578Y-95568100D01*
X101574600Y-95568100D01*
X101574600Y-96274850D01*
X101733350Y-96433600D01*
X101767600Y-96436672D01*
X101892082Y-96424412D01*
X102011780Y-96388102D01*
X102089809Y-96346394D01*
X102125744Y-96370405D01*
X102314102Y-96448426D01*
X102514061Y-96488200D01*
X102717939Y-96488200D01*
X102917898Y-96448426D01*
X103106256Y-96370405D01*
X103275774Y-96257137D01*
X103419937Y-96112974D01*
X103533205Y-95943456D01*
X103611226Y-95755098D01*
X103651000Y-95555139D01*
X103651000Y-95351261D01*
X103618703Y-95188891D01*
X103651000Y-95192072D01*
X104046000Y-95192072D01*
X104201696Y-95176737D01*
X104351409Y-95131322D01*
X104457500Y-95074616D01*
X104563591Y-95131322D01*
X104713304Y-95176737D01*
X104869000Y-95192072D01*
X105264000Y-95192072D01*
X105419696Y-95176737D01*
X105569409Y-95131322D01*
X105603222Y-95113249D01*
X105659820Y-95143502D01*
X105779518Y-95179812D01*
X105904000Y-95192072D01*
X105975750Y-95189000D01*
X106134500Y-95030250D01*
X106134500Y-94361000D01*
X106114500Y-94361000D01*
X106114500Y-94107000D01*
X106134500Y-94107000D01*
X106134500Y-94087000D01*
X106388500Y-94087000D01*
X106388500Y-94107000D01*
X106408500Y-94107000D01*
X106408500Y-94361000D01*
X106388500Y-94361000D01*
X106388500Y-95030250D01*
X106547250Y-95189000D01*
X106619000Y-95192072D01*
X106743482Y-95179812D01*
X106863180Y-95143502D01*
X106973494Y-95084537D01*
X107070185Y-95005185D01*
X107138491Y-94921953D01*
X107267102Y-94975226D01*
X107467061Y-95015000D01*
X107670939Y-95015000D01*
X107870898Y-94975226D01*
X108059256Y-94897205D01*
X108107454Y-94865000D01*
X109210485Y-94865000D01*
X109336525Y-95053632D01*
X109468380Y-95185487D01*
X109395820Y-95207498D01*
X109285506Y-95266463D01*
X109188815Y-95345815D01*
X109109463Y-95442506D01*
X109050498Y-95552820D01*
X109014188Y-95672518D01*
X109001928Y-95797000D01*
X109005000Y-96361250D01*
X109163750Y-96520000D01*
X110363000Y-96520000D01*
X110363000Y-96500000D01*
X110617000Y-96500000D01*
X110617000Y-96520000D01*
X111816250Y-96520000D01*
X111975000Y-96361250D01*
X111978072Y-95797000D01*
X111965812Y-95672518D01*
X111929502Y-95552820D01*
X111870537Y-95442506D01*
X111791185Y-95345815D01*
X111694494Y-95266463D01*
X111584180Y-95207498D01*
X111511620Y-95185487D01*
X111643475Y-95053632D01*
X111805990Y-94810411D01*
X111917932Y-94540158D01*
X111975000Y-94253260D01*
X111975000Y-93960740D01*
X111917932Y-93673842D01*
X111805990Y-93403589D01*
X111643475Y-93160368D01*
X111436632Y-92953525D01*
X111262240Y-92837000D01*
X111436632Y-92720475D01*
X111643475Y-92513632D01*
X111805990Y-92270411D01*
X111917932Y-92000158D01*
X111975000Y-91713260D01*
X111975000Y-91420740D01*
X111917932Y-91133842D01*
X111805990Y-90863589D01*
X111643475Y-90620368D01*
X111436632Y-90413525D01*
X111262240Y-90297000D01*
X111436632Y-90180475D01*
X111643475Y-89973632D01*
X111805990Y-89730411D01*
X111917932Y-89460158D01*
X111975000Y-89173260D01*
X111975000Y-88880740D01*
X111917932Y-88593842D01*
X111805990Y-88323589D01*
X111643475Y-88080368D01*
X111436632Y-87873525D01*
X111262240Y-87757000D01*
X111436632Y-87640475D01*
X111643475Y-87433632D01*
X111805990Y-87190411D01*
X111917932Y-86920158D01*
X111975000Y-86633260D01*
X111975000Y-86340740D01*
X111917932Y-86053842D01*
X111805990Y-85783589D01*
X111643475Y-85540368D01*
X111436632Y-85333525D01*
X111262240Y-85217000D01*
X111436632Y-85100475D01*
X111643475Y-84893632D01*
X111805990Y-84650411D01*
X111917932Y-84380158D01*
X111975000Y-84093260D01*
X111975000Y-83800740D01*
X111917932Y-83513842D01*
X111805990Y-83243589D01*
X111643475Y-83000368D01*
X111436632Y-82793525D01*
X111193411Y-82631010D01*
X110923158Y-82519068D01*
X110636260Y-82462000D01*
X110343740Y-82462000D01*
X110056842Y-82519068D01*
X109786589Y-82631010D01*
X109543368Y-82793525D01*
X109336525Y-83000368D01*
X109211822Y-83187000D01*
X107125303Y-83187000D01*
X107087978Y-83183324D01*
X107050653Y-83187000D01*
X107050645Y-83187000D01*
X106938992Y-83197997D01*
X106795731Y-83241454D01*
X106663702Y-83312026D01*
X106547977Y-83406999D01*
X106524179Y-83435997D01*
X103921249Y-86038928D01*
X103843500Y-86038928D01*
X103706825Y-86052389D01*
X103575403Y-86092256D01*
X103454283Y-86156996D01*
X103348121Y-86244121D01*
X103260996Y-86350283D01*
X103196256Y-86471403D01*
X103156389Y-86602825D01*
X103142928Y-86739500D01*
X103142928Y-87013928D01*
X102868500Y-87013928D01*
X102731825Y-87027389D01*
X102600403Y-87067256D01*
X102479283Y-87131996D01*
X102373121Y-87219121D01*
X102285996Y-87325283D01*
X102221256Y-87446403D01*
X102181389Y-87577825D01*
X102167928Y-87714500D01*
X102167928Y-87839500D01*
X102181389Y-87976175D01*
X102188098Y-87998290D01*
X102183232Y-88013089D01*
X102182777Y-88017000D01*
X101725308Y-88017000D01*
X101641937Y-87892226D01*
X101497774Y-87748063D01*
X101328256Y-87634795D01*
X101139898Y-87556774D01*
X100939939Y-87517000D01*
X100736061Y-87517000D01*
X100536102Y-87556774D01*
X100347744Y-87634795D01*
X100178226Y-87748063D01*
X100034063Y-87892226D01*
X100020782Y-87912102D01*
X99970986Y-87896997D01*
X99859333Y-87886000D01*
X99859322Y-87886000D01*
X99822000Y-87882324D01*
X99784678Y-87886000D01*
X99351333Y-87886000D01*
X99314000Y-87882323D01*
X99302642Y-87883442D01*
X99293226Y-87836102D01*
X99215205Y-87647744D01*
X99101937Y-87478226D01*
X98957774Y-87334063D01*
X98788256Y-87220795D01*
X98599898Y-87142774D01*
X98543043Y-87131465D01*
X98484786Y-87073208D01*
X98457069Y-87039435D01*
X98322311Y-86928841D01*
X98168565Y-86846663D01*
X98001742Y-86796057D01*
X97871729Y-86783252D01*
X97871721Y-86783252D01*
X97828252Y-86778971D01*
X97784783Y-86783252D01*
X97751900Y-86783252D01*
X97751900Y-86740998D01*
X97593152Y-86740998D01*
X97751900Y-86582250D01*
X97754972Y-86563200D01*
X97742712Y-86438718D01*
X97706402Y-86319020D01*
X97647437Y-86208706D01*
X97568085Y-86112015D01*
X97471394Y-86032663D01*
X97361080Y-85973698D01*
X97241382Y-85937388D01*
X97209275Y-85934226D01*
X97222676Y-85798161D01*
X97199626Y-85564135D01*
X97131364Y-85339103D01*
X97020511Y-85131712D01*
X96871328Y-84949933D01*
X96689549Y-84800750D01*
X96482158Y-84689897D01*
X96257126Y-84621635D01*
X96081744Y-84604361D01*
X94872256Y-84604361D01*
X94696874Y-84621635D01*
X94471842Y-84689897D01*
X94264451Y-84800750D01*
X94082672Y-84949933D01*
X93933489Y-85131712D01*
X93822636Y-85339103D01*
X93754374Y-85564135D01*
X93731324Y-85798161D01*
X93754374Y-86032187D01*
X93822636Y-86257219D01*
X93933489Y-86464610D01*
X94049323Y-86605754D01*
X93979105Y-86710843D01*
X93896772Y-86909611D01*
X93854800Y-87120622D01*
X93854800Y-87335766D01*
X93896772Y-87546777D01*
X93979105Y-87745545D01*
X94098633Y-87924431D01*
X94250763Y-88076561D01*
X94429649Y-88196089D01*
X94609025Y-88270389D01*
X94538669Y-88328129D01*
X94514871Y-88357128D01*
X94346598Y-88525400D01*
X94284461Y-88525400D01*
X94084502Y-88565174D01*
X93896144Y-88643195D01*
X93726626Y-88756463D01*
X93582463Y-88900626D01*
X93469195Y-89070144D01*
X93391174Y-89258502D01*
X93351400Y-89458461D01*
X93351400Y-89662339D01*
X93391174Y-89862298D01*
X93469195Y-90050656D01*
X93582463Y-90220174D01*
X93726626Y-90364337D01*
X93896144Y-90477605D01*
X94084502Y-90555626D01*
X94284461Y-90595400D01*
X94488339Y-90595400D01*
X94688298Y-90555626D01*
X94876656Y-90477605D01*
X95031028Y-90374457D01*
X95031028Y-90520656D01*
X95040647Y-90618319D01*
X95031028Y-90715982D01*
X95031028Y-91020782D01*
X95039656Y-91108382D01*
X94249343Y-91108382D01*
X94212018Y-91104706D01*
X94174693Y-91108382D01*
X94174685Y-91108382D01*
X94063032Y-91119379D01*
X93919771Y-91162836D01*
X93787742Y-91233408D01*
X93672017Y-91328381D01*
X93648219Y-91357379D01*
X93228998Y-91776600D01*
X93166861Y-91776600D01*
X92966902Y-91816374D01*
X92778544Y-91894395D01*
X92609026Y-92007663D01*
X92464863Y-92151826D01*
X92351595Y-92321344D01*
X92273574Y-92509702D01*
X92233800Y-92709661D01*
X89560000Y-92709661D01*
X89560000Y-85798161D01*
X89805324Y-85798161D01*
X89828374Y-86032187D01*
X89896636Y-86257219D01*
X90007489Y-86464610D01*
X90156672Y-86646389D01*
X90338451Y-86795572D01*
X90545842Y-86906425D01*
X90770874Y-86974687D01*
X90946256Y-86991961D01*
X91647744Y-86991961D01*
X91823126Y-86974687D01*
X92048158Y-86906425D01*
X92255549Y-86795572D01*
X92437328Y-86646389D01*
X92586511Y-86464610D01*
X92697364Y-86257219D01*
X92765626Y-86032187D01*
X92788676Y-85798161D01*
X92765626Y-85564135D01*
X92697364Y-85339103D01*
X92586511Y-85131712D01*
X92437328Y-84949933D01*
X92255549Y-84800750D01*
X92048158Y-84689897D01*
X91823126Y-84621635D01*
X91647744Y-84604361D01*
X90946256Y-84604361D01*
X90770874Y-84621635D01*
X90545842Y-84689897D01*
X90338451Y-84800750D01*
X90156672Y-84949933D01*
X90007489Y-85131712D01*
X89896636Y-85339103D01*
X89828374Y-85564135D01*
X89805324Y-85798161D01*
X89560000Y-85798161D01*
X89560000Y-82298279D01*
X89588625Y-82006341D01*
X89664035Y-81756571D01*
X89786522Y-81526208D01*
X89951422Y-81324020D01*
X90152450Y-81157714D01*
X90381954Y-81033622D01*
X90631195Y-80956469D01*
X90921088Y-80926000D01*
X110867721Y-80926000D01*
X111159659Y-80954625D01*
%TA.AperFunction,Conductor*%
D22*
G36*
X111159659Y-80954625D02*
G01*
X111409429Y-81030035D01*
X111639792Y-81152522D01*
X111841980Y-81317422D01*
X112008286Y-81518450D01*
X112132378Y-81747954D01*
X112209531Y-81997195D01*
X112240000Y-82287089D01*
X112240001Y-98233711D01*
X112211375Y-98525660D01*
X112135965Y-98775429D01*
X112013477Y-99005794D01*
X111848579Y-99207979D01*
X111647546Y-99374288D01*
X111418046Y-99498378D01*
X111168805Y-99575531D01*
X110878911Y-99606000D01*
X90932279Y-99606000D01*
X90640340Y-99577375D01*
X90390571Y-99501965D01*
X90160206Y-99379477D01*
X89958021Y-99214579D01*
X89791712Y-99013546D01*
X89667622Y-98784046D01*
X89590469Y-98534805D01*
X89560000Y-98244911D01*
X89560000Y-97497000D01*
X109001928Y-97497000D01*
X109014188Y-97621482D01*
X109050498Y-97741180D01*
X109109463Y-97851494D01*
X109188815Y-97948185D01*
X109285506Y-98027537D01*
X109395820Y-98086502D01*
X109515518Y-98122812D01*
X109640000Y-98135072D01*
X110204250Y-98132000D01*
X110363000Y-97973250D01*
X110363000Y-96774000D01*
X110617000Y-96774000D01*
X110617000Y-97973250D01*
X110775750Y-98132000D01*
X111340000Y-98135072D01*
X111464482Y-98122812D01*
X111584180Y-98086502D01*
X111694494Y-98027537D01*
X111791185Y-97948185D01*
X111870537Y-97851494D01*
X111929502Y-97741180D01*
X111965812Y-97621482D01*
X111978072Y-97497000D01*
X111975000Y-96932750D01*
X111816250Y-96774000D01*
X110617000Y-96774000D01*
X110363000Y-96774000D01*
X109163750Y-96774000D01*
X109005000Y-96932750D01*
X109001928Y-97497000D01*
X89560000Y-97497000D01*
X89560000Y-94438195D01*
X89805324Y-94438195D01*
X89828374Y-94672221D01*
X89896636Y-94897253D01*
X90007489Y-95104644D01*
X90156672Y-95286423D01*
X90338451Y-95435606D01*
X90545842Y-95546459D01*
X90770874Y-95614721D01*
X90946256Y-95631995D01*
X91647744Y-95631995D01*
X91823126Y-95614721D01*
X92048158Y-95546459D01*
X92255549Y-95435606D01*
X92437328Y-95286423D01*
X92586511Y-95104644D01*
X92697364Y-94897253D01*
X92765626Y-94672221D01*
X92788676Y-94438195D01*
X92765626Y-94204169D01*
X92697364Y-93979137D01*
X92586511Y-93771746D01*
X92437328Y-93589967D01*
X92255549Y-93440784D01*
X92048158Y-93329931D01*
X91823126Y-93261669D01*
X91647744Y-93244395D01*
X90946256Y-93244395D01*
X90770874Y-93261669D01*
X90545842Y-93329931D01*
X90338451Y-93440784D01*
X90156672Y-93589967D01*
X90007489Y-93771746D01*
X89896636Y-93979137D01*
X89828374Y-94204169D01*
X89805324Y-94438195D01*
X89560000Y-94438195D01*
X89560000Y-92709661D01*
X92233800Y-92709661D01*
X92233800Y-92913539D01*
X92273574Y-93113498D01*
X92351595Y-93301856D01*
X92464863Y-93471374D01*
X92609026Y-93615537D01*
X92778544Y-93728805D01*
X92966902Y-93806826D01*
X93166861Y-93846600D01*
X93370739Y-93846600D01*
X93570698Y-93806826D01*
X93759056Y-93728805D01*
X93928574Y-93615537D01*
X93994912Y-93549199D01*
X94049323Y-93630632D01*
X93933489Y-93771776D01*
X93822636Y-93979167D01*
X93754374Y-94204199D01*
X93731324Y-94438225D01*
X93754374Y-94672251D01*
X93822636Y-94897283D01*
X93933489Y-95104674D01*
X94082672Y-95286453D01*
X94264451Y-95435636D01*
X94471842Y-95546489D01*
X94696874Y-95614751D01*
X94872256Y-95632025D01*
X96081744Y-95632025D01*
X96257126Y-95614751D01*
X96482158Y-95546489D01*
X96607396Y-95479548D01*
X96602600Y-95503661D01*
X96602600Y-95707539D01*
X96642374Y-95907498D01*
X96720395Y-96095856D01*
X96833663Y-96265374D01*
X96977826Y-96409537D01*
X97147344Y-96522805D01*
X97335702Y-96600826D01*
X97535661Y-96640600D01*
X97739539Y-96640600D01*
X97939498Y-96600826D01*
X98127856Y-96522805D01*
X98297374Y-96409537D01*
X98341311Y-96365600D01*
X98514678Y-96365600D01*
X98552000Y-96369276D01*
X98589322Y-96365600D01*
X98589333Y-96365600D01*
X98700986Y-96354603D01*
X98844247Y-96311146D01*
X98976276Y-96240574D01*
X99092001Y-96145601D01*
X99115804Y-96116597D01*
X99377475Y-95854926D01*
X99384188Y-95923082D01*
X99420498Y-96042780D01*
X99479463Y-96153094D01*
X99558815Y-96249785D01*
X99655506Y-96329137D01*
X99765820Y-96388102D01*
X99885518Y-96424412D01*
X100010000Y-96436672D01*
X100044250Y-96433600D01*
X100203000Y-96274850D01*
X100203000Y-95568100D01*
X100457000Y-95568100D01*
X100457000Y-96274850D01*
X100615750Y-96433600D01*
X100650000Y-96436672D01*
X100774482Y-96424412D01*
X100888800Y-96389734D01*
X101003118Y-96424412D01*
X101127600Y-96436672D01*
X101161850Y-96433600D01*
X101320600Y-96274850D01*
X101320600Y-95568100D01*
X100457000Y-95568100D01*
X100203000Y-95568100D01*
X100183000Y-95568100D01*
X100183000Y-95314100D01*
X100203000Y-95314100D01*
X100203000Y-95294100D01*
X100457000Y-95294100D01*
X100457000Y-95314100D01*
X101320600Y-95314100D01*
X101320600Y-95294100D01*
X101574600Y-95294100D01*
X101574600Y-95314100D01*
X101588392Y-95314100D01*
X101581000Y-95351261D01*
X101581000Y-95555139D01*
X101583578Y-95568100D01*
X101574600Y-95568100D01*
X101574600Y-96274850D01*
X101733350Y-96433600D01*
X101767600Y-96436672D01*
X101892082Y-96424412D01*
X102011780Y-96388102D01*
X102089809Y-96346394D01*
X102125744Y-96370405D01*
X102314102Y-96448426D01*
X102514061Y-96488200D01*
X102717939Y-96488200D01*
X102917898Y-96448426D01*
X103106256Y-96370405D01*
X103275774Y-96257137D01*
X103419937Y-96112974D01*
X103533205Y-95943456D01*
X103611226Y-95755098D01*
X103651000Y-95555139D01*
X103651000Y-95351261D01*
X103618703Y-95188891D01*
X103651000Y-95192072D01*
X104046000Y-95192072D01*
X104201696Y-95176737D01*
X104351409Y-95131322D01*
X104457500Y-95074616D01*
X104563591Y-95131322D01*
X104713304Y-95176737D01*
X104869000Y-95192072D01*
X105264000Y-95192072D01*
X105419696Y-95176737D01*
X105569409Y-95131322D01*
X105603222Y-95113249D01*
X105659820Y-95143502D01*
X105779518Y-95179812D01*
X105904000Y-95192072D01*
X105975750Y-95189000D01*
X106134500Y-95030250D01*
X106134500Y-94361000D01*
X106114500Y-94361000D01*
X106114500Y-94107000D01*
X106134500Y-94107000D01*
X106134500Y-94087000D01*
X106388500Y-94087000D01*
X106388500Y-94107000D01*
X106408500Y-94107000D01*
X106408500Y-94361000D01*
X106388500Y-94361000D01*
X106388500Y-95030250D01*
X106547250Y-95189000D01*
X106619000Y-95192072D01*
X106743482Y-95179812D01*
X106863180Y-95143502D01*
X106973494Y-95084537D01*
X107070185Y-95005185D01*
X107138491Y-94921953D01*
X107267102Y-94975226D01*
X107467061Y-95015000D01*
X107670939Y-95015000D01*
X107870898Y-94975226D01*
X108059256Y-94897205D01*
X108107454Y-94865000D01*
X109210485Y-94865000D01*
X109336525Y-95053632D01*
X109468380Y-95185487D01*
X109395820Y-95207498D01*
X109285506Y-95266463D01*
X109188815Y-95345815D01*
X109109463Y-95442506D01*
X109050498Y-95552820D01*
X109014188Y-95672518D01*
X109001928Y-95797000D01*
X109005000Y-96361250D01*
X109163750Y-96520000D01*
X110363000Y-96520000D01*
X110363000Y-96500000D01*
X110617000Y-96500000D01*
X110617000Y-96520000D01*
X111816250Y-96520000D01*
X111975000Y-96361250D01*
X111978072Y-95797000D01*
X111965812Y-95672518D01*
X111929502Y-95552820D01*
X111870537Y-95442506D01*
X111791185Y-95345815D01*
X111694494Y-95266463D01*
X111584180Y-95207498D01*
X111511620Y-95185487D01*
X111643475Y-95053632D01*
X111805990Y-94810411D01*
X111917932Y-94540158D01*
X111975000Y-94253260D01*
X111975000Y-93960740D01*
X111917932Y-93673842D01*
X111805990Y-93403589D01*
X111643475Y-93160368D01*
X111436632Y-92953525D01*
X111262240Y-92837000D01*
X111436632Y-92720475D01*
X111643475Y-92513632D01*
X111805990Y-92270411D01*
X111917932Y-92000158D01*
X111975000Y-91713260D01*
X111975000Y-91420740D01*
X111917932Y-91133842D01*
X111805990Y-90863589D01*
X111643475Y-90620368D01*
X111436632Y-90413525D01*
X111262240Y-90297000D01*
X111436632Y-90180475D01*
X111643475Y-89973632D01*
X111805990Y-89730411D01*
X111917932Y-89460158D01*
X111975000Y-89173260D01*
X111975000Y-88880740D01*
X111917932Y-88593842D01*
X111805990Y-88323589D01*
X111643475Y-88080368D01*
X111436632Y-87873525D01*
X111262240Y-87757000D01*
X111436632Y-87640475D01*
X111643475Y-87433632D01*
X111805990Y-87190411D01*
X111917932Y-86920158D01*
X111975000Y-86633260D01*
X111975000Y-86340740D01*
X111917932Y-86053842D01*
X111805990Y-85783589D01*
X111643475Y-85540368D01*
X111436632Y-85333525D01*
X111262240Y-85217000D01*
X111436632Y-85100475D01*
X111643475Y-84893632D01*
X111805990Y-84650411D01*
X111917932Y-84380158D01*
X111975000Y-84093260D01*
X111975000Y-83800740D01*
X111917932Y-83513842D01*
X111805990Y-83243589D01*
X111643475Y-83000368D01*
X111436632Y-82793525D01*
X111193411Y-82631010D01*
X110923158Y-82519068D01*
X110636260Y-82462000D01*
X110343740Y-82462000D01*
X110056842Y-82519068D01*
X109786589Y-82631010D01*
X109543368Y-82793525D01*
X109336525Y-83000368D01*
X109211822Y-83187000D01*
X107125303Y-83187000D01*
X107087978Y-83183324D01*
X107050653Y-83187000D01*
X107050645Y-83187000D01*
X106938992Y-83197997D01*
X106795731Y-83241454D01*
X106663702Y-83312026D01*
X106547977Y-83406999D01*
X106524179Y-83435997D01*
X103921249Y-86038928D01*
X103843500Y-86038928D01*
X103706825Y-86052389D01*
X103575403Y-86092256D01*
X103454283Y-86156996D01*
X103348121Y-86244121D01*
X103260996Y-86350283D01*
X103196256Y-86471403D01*
X103156389Y-86602825D01*
X103142928Y-86739500D01*
X103142928Y-87013928D01*
X102868500Y-87013928D01*
X102731825Y-87027389D01*
X102600403Y-87067256D01*
X102479283Y-87131996D01*
X102373121Y-87219121D01*
X102285996Y-87325283D01*
X102221256Y-87446403D01*
X102181389Y-87577825D01*
X102167928Y-87714500D01*
X102167928Y-87839500D01*
X102181389Y-87976175D01*
X102188098Y-87998290D01*
X102183232Y-88013089D01*
X102182777Y-88017000D01*
X101725308Y-88017000D01*
X101641937Y-87892226D01*
X101497774Y-87748063D01*
X101328256Y-87634795D01*
X101139898Y-87556774D01*
X100939939Y-87517000D01*
X100736061Y-87517000D01*
X100536102Y-87556774D01*
X100347744Y-87634795D01*
X100178226Y-87748063D01*
X100034063Y-87892226D01*
X100020782Y-87912102D01*
X99970986Y-87896997D01*
X99859333Y-87886000D01*
X99859322Y-87886000D01*
X99822000Y-87882324D01*
X99784678Y-87886000D01*
X99351333Y-87886000D01*
X99314000Y-87882323D01*
X99302642Y-87883442D01*
X99293226Y-87836102D01*
X99215205Y-87647744D01*
X99101937Y-87478226D01*
X98957774Y-87334063D01*
X98788256Y-87220795D01*
X98599898Y-87142774D01*
X98543043Y-87131465D01*
X98484786Y-87073208D01*
X98457069Y-87039435D01*
X98322311Y-86928841D01*
X98168565Y-86846663D01*
X98001742Y-86796057D01*
X97871729Y-86783252D01*
X97871721Y-86783252D01*
X97828252Y-86778971D01*
X97784783Y-86783252D01*
X97751900Y-86783252D01*
X97751900Y-86740998D01*
X97593152Y-86740998D01*
X97751900Y-86582250D01*
X97754972Y-86563200D01*
X97742712Y-86438718D01*
X97706402Y-86319020D01*
X97647437Y-86208706D01*
X97568085Y-86112015D01*
X97471394Y-86032663D01*
X97361080Y-85973698D01*
X97241382Y-85937388D01*
X97209275Y-85934226D01*
X97222676Y-85798161D01*
X97199626Y-85564135D01*
X97131364Y-85339103D01*
X97020511Y-85131712D01*
X96871328Y-84949933D01*
X96689549Y-84800750D01*
X96482158Y-84689897D01*
X96257126Y-84621635D01*
X96081744Y-84604361D01*
X94872256Y-84604361D01*
X94696874Y-84621635D01*
X94471842Y-84689897D01*
X94264451Y-84800750D01*
X94082672Y-84949933D01*
X93933489Y-85131712D01*
X93822636Y-85339103D01*
X93754374Y-85564135D01*
X93731324Y-85798161D01*
X93754374Y-86032187D01*
X93822636Y-86257219D01*
X93933489Y-86464610D01*
X94049323Y-86605754D01*
X93979105Y-86710843D01*
X93896772Y-86909611D01*
X93854800Y-87120622D01*
X93854800Y-87335766D01*
X93896772Y-87546777D01*
X93979105Y-87745545D01*
X94098633Y-87924431D01*
X94250763Y-88076561D01*
X94429649Y-88196089D01*
X94609025Y-88270389D01*
X94538669Y-88328129D01*
X94514871Y-88357128D01*
X94346598Y-88525400D01*
X94284461Y-88525400D01*
X94084502Y-88565174D01*
X93896144Y-88643195D01*
X93726626Y-88756463D01*
X93582463Y-88900626D01*
X93469195Y-89070144D01*
X93391174Y-89258502D01*
X93351400Y-89458461D01*
X93351400Y-89662339D01*
X93391174Y-89862298D01*
X93469195Y-90050656D01*
X93582463Y-90220174D01*
X93726626Y-90364337D01*
X93896144Y-90477605D01*
X94084502Y-90555626D01*
X94284461Y-90595400D01*
X94488339Y-90595400D01*
X94688298Y-90555626D01*
X94876656Y-90477605D01*
X95031028Y-90374457D01*
X95031028Y-90520656D01*
X95040647Y-90618319D01*
X95031028Y-90715982D01*
X95031028Y-91020782D01*
X95039656Y-91108382D01*
X94249343Y-91108382D01*
X94212018Y-91104706D01*
X94174693Y-91108382D01*
X94174685Y-91108382D01*
X94063032Y-91119379D01*
X93919771Y-91162836D01*
X93787742Y-91233408D01*
X93672017Y-91328381D01*
X93648219Y-91357379D01*
X93228998Y-91776600D01*
X93166861Y-91776600D01*
X92966902Y-91816374D01*
X92778544Y-91894395D01*
X92609026Y-92007663D01*
X92464863Y-92151826D01*
X92351595Y-92321344D01*
X92273574Y-92509702D01*
X92233800Y-92709661D01*
X89560000Y-92709661D01*
X89560000Y-85798161D01*
X89805324Y-85798161D01*
X89828374Y-86032187D01*
X89896636Y-86257219D01*
X90007489Y-86464610D01*
X90156672Y-86646389D01*
X90338451Y-86795572D01*
X90545842Y-86906425D01*
X90770874Y-86974687D01*
X90946256Y-86991961D01*
X91647744Y-86991961D01*
X91823126Y-86974687D01*
X92048158Y-86906425D01*
X92255549Y-86795572D01*
X92437328Y-86646389D01*
X92586511Y-86464610D01*
X92697364Y-86257219D01*
X92765626Y-86032187D01*
X92788676Y-85798161D01*
X92765626Y-85564135D01*
X92697364Y-85339103D01*
X92586511Y-85131712D01*
X92437328Y-84949933D01*
X92255549Y-84800750D01*
X92048158Y-84689897D01*
X91823126Y-84621635D01*
X91647744Y-84604361D01*
X90946256Y-84604361D01*
X90770874Y-84621635D01*
X90545842Y-84689897D01*
X90338451Y-84800750D01*
X90156672Y-84949933D01*
X90007489Y-85131712D01*
X89896636Y-85339103D01*
X89828374Y-85564135D01*
X89805324Y-85798161D01*
X89560000Y-85798161D01*
X89560000Y-82298279D01*
X89588625Y-82006341D01*
X89664035Y-81756571D01*
X89786522Y-81526208D01*
X89951422Y-81324020D01*
X90152450Y-81157714D01*
X90381954Y-81033622D01*
X90631195Y-80956469D01*
X90921088Y-80926000D01*
X110867721Y-80926000D01*
X111159659Y-80954625D01*
G37*
%TD.AperFunction*%
D21*
X97367063Y-94385774D02*
X97511226Y-94529937D01*
X97572083Y-94570600D01*
X97535661Y-94570600D01*
X97335702Y-94610374D01*
X97200192Y-94666504D01*
X97222676Y-94438225D01*
X97209275Y-94302160D01*
X97241382Y-94298998D01*
X97297672Y-94281923D01*
X97367063Y-94385774D01*
%TA.AperFunction,Conductor*%
D22*
G36*
X97367063Y-94385774D02*
G01*
X97511226Y-94529937D01*
X97572083Y-94570600D01*
X97535661Y-94570600D01*
X97335702Y-94610374D01*
X97200192Y-94666504D01*
X97222676Y-94438225D01*
X97209275Y-94302160D01*
X97241382Y-94298998D01*
X97297672Y-94281923D01*
X97367063Y-94385774D01*
G37*
%TD.AperFunction*%
D21*
X102148245Y-93088845D02*
X102294206Y-93133122D01*
X102446000Y-93148072D01*
X102786000Y-93148072D01*
X102937794Y-93133122D01*
X102997534Y-93115000D01*
X103377466Y-93115000D01*
X103437206Y-93133122D01*
X103589000Y-93148072D01*
X103646001Y-93148072D01*
X103646001Y-93276420D01*
X103495304Y-93291263D01*
X103410461Y-93317000D01*
X103091539Y-93317000D01*
X103006696Y-93291263D01*
X102851000Y-93275928D01*
X102456000Y-93275928D01*
X102300304Y-93291263D01*
X102215461Y-93317000D01*
X101923714Y-93317000D01*
X101913009Y-93311278D01*
X101763296Y-93265863D01*
X101700478Y-93259676D01*
X101519792Y-93078990D01*
X102129808Y-93078990D01*
X102148245Y-93088845D01*
%TA.AperFunction,Conductor*%
D22*
G36*
X102148245Y-93088845D02*
G01*
X102294206Y-93133122D01*
X102446000Y-93148072D01*
X102786000Y-93148072D01*
X102937794Y-93133122D01*
X102997534Y-93115000D01*
X103377466Y-93115000D01*
X103437206Y-93133122D01*
X103589000Y-93148072D01*
X103646001Y-93148072D01*
X103646001Y-93276420D01*
X103495304Y-93291263D01*
X103410461Y-93317000D01*
X103091539Y-93317000D01*
X103006696Y-93291263D01*
X102851000Y-93275928D01*
X102456000Y-93275928D01*
X102300304Y-93291263D01*
X102215461Y-93317000D01*
X101923714Y-93317000D01*
X101913009Y-93311278D01*
X101763296Y-93265863D01*
X101700478Y-93259676D01*
X101519792Y-93078990D01*
X102129808Y-93078990D01*
X102148245Y-93088845D01*
G37*
%TD.AperFunction*%
D21*
X100020000Y-91285002D02*
X100178748Y-91285002D01*
X100154760Y-91308990D01*
X99880837Y-91308990D01*
X99932000Y-91267002D01*
X99955803Y-91237998D01*
X100020000Y-91173801D01*
X100020000Y-91285002D01*
%TA.AperFunction,Conductor*%
D22*
G36*
X100020000Y-91285002D02*
G01*
X100178748Y-91285002D01*
X100154760Y-91308990D01*
X99880837Y-91308990D01*
X99932000Y-91267002D01*
X99955803Y-91237998D01*
X100020000Y-91173801D01*
X100020000Y-91285002D01*
G37*
%TD.AperFunction*%
D21*
X101513245Y-91056845D02*
X101659206Y-91101122D01*
X101811000Y-91116072D01*
X101962000Y-91116072D01*
X101962000Y-91160939D01*
X101990655Y-91305000D01*
X101854000Y-91305000D01*
X101854000Y-91285000D01*
X101092000Y-91285000D01*
X101092000Y-91305000D01*
X100838000Y-91305000D01*
X100838000Y-91285000D01*
X100818000Y-91285000D01*
X100818000Y-91116072D01*
X101135000Y-91116072D01*
X101286794Y-91101122D01*
X101432755Y-91056845D01*
X101469882Y-91037000D01*
X101476118Y-91037000D01*
X101513245Y-91056845D01*
%TA.AperFunction,Conductor*%
D22*
G36*
X101513245Y-91056845D02*
G01*
X101659206Y-91101122D01*
X101811000Y-91116072D01*
X101962000Y-91116072D01*
X101962000Y-91160939D01*
X101990655Y-91305000D01*
X101854000Y-91305000D01*
X101854000Y-91285000D01*
X101092000Y-91285000D01*
X101092000Y-91305000D01*
X100838000Y-91305000D01*
X100838000Y-91285000D01*
X100818000Y-91285000D01*
X100818000Y-91116072D01*
X101135000Y-91116072D01*
X101286794Y-91101122D01*
X101432755Y-91056845D01*
X101469882Y-91037000D01*
X101476118Y-91037000D01*
X101513245Y-91056845D01*
G37*
%TD.AperFunction*%
D21*
X105283000Y-88900000D02*
X105303000Y-88900000D01*
X105303000Y-89154000D01*
X105283000Y-89154000D01*
X105283000Y-89174000D01*
X105029000Y-89174000D01*
X105029000Y-89154000D01*
X105009000Y-89154000D01*
X105009000Y-88900000D01*
X105029000Y-88900000D01*
X105029000Y-88880000D01*
X105283000Y-88880000D01*
X105283000Y-88900000D01*
%TA.AperFunction,Conductor*%
D22*
G36*
X105283000Y-88900000D02*
G01*
X105303000Y-88900000D01*
X105303000Y-89154000D01*
X105283000Y-89154000D01*
X105283000Y-89174000D01*
X105029000Y-89174000D01*
X105029000Y-89154000D01*
X105009000Y-89154000D01*
X105009000Y-88900000D01*
X105029000Y-88900000D01*
X105029000Y-88880000D01*
X105283000Y-88880000D01*
X105283000Y-88900000D01*
G37*
%TD.AperFunction*%
%TD*%
M02*
