%TF.GenerationSoftware,KiCad,Pcbnew,5.1.10*%
%TF.CreationDate,2021-06-17T01:01:51-05:00*%
%TF.ProjectId,usbttl,75736274-746c-42e6-9b69-6361645f7063,rev?*%
%TF.SameCoordinates,Original*%
%TF.FileFunction,Paste,Top*%
%TF.FilePolarity,Positive*%
%FSLAX46Y46*%
G04 Gerber Fmt 4.6, Leading zero omitted, Abs format (unit mm)*
G04 Created by KiCad (PCBNEW 5.1.10) date 2021-06-17 01:01:51*
%MOMM*%
%LPD*%
G01*
G04 APERTURE LIST*
%ADD10R,1.447800X0.304800*%
%ADD11R,1.447800X0.609600*%
G04 APERTURE END LIST*
%TO.C,U1*%
G36*
G01*
X102806000Y-87839500D02*
X102806000Y-87714500D01*
G75*
G02*
X102868500Y-87652000I62500J0D01*
G01*
X103568500Y-87652000D01*
G75*
G02*
X103631000Y-87714500I0J-62500D01*
G01*
X103631000Y-87839500D01*
G75*
G02*
X103568500Y-87902000I-62500J0D01*
G01*
X102868500Y-87902000D01*
G75*
G02*
X102806000Y-87839500I0J62500D01*
G01*
G37*
G36*
G01*
X102806000Y-88339500D02*
X102806000Y-88214500D01*
G75*
G02*
X102868500Y-88152000I62500J0D01*
G01*
X103568500Y-88152000D01*
G75*
G02*
X103631000Y-88214500I0J-62500D01*
G01*
X103631000Y-88339500D01*
G75*
G02*
X103568500Y-88402000I-62500J0D01*
G01*
X102868500Y-88402000D01*
G75*
G02*
X102806000Y-88339500I0J62500D01*
G01*
G37*
G36*
G01*
X102806000Y-88839500D02*
X102806000Y-88714500D01*
G75*
G02*
X102868500Y-88652000I62500J0D01*
G01*
X103568500Y-88652000D01*
G75*
G02*
X103631000Y-88714500I0J-62500D01*
G01*
X103631000Y-88839500D01*
G75*
G02*
X103568500Y-88902000I-62500J0D01*
G01*
X102868500Y-88902000D01*
G75*
G02*
X102806000Y-88839500I0J62500D01*
G01*
G37*
G36*
G01*
X102806000Y-89339500D02*
X102806000Y-89214500D01*
G75*
G02*
X102868500Y-89152000I62500J0D01*
G01*
X103568500Y-89152000D01*
G75*
G02*
X103631000Y-89214500I0J-62500D01*
G01*
X103631000Y-89339500D01*
G75*
G02*
X103568500Y-89402000I-62500J0D01*
G01*
X102868500Y-89402000D01*
G75*
G02*
X102806000Y-89339500I0J62500D01*
G01*
G37*
G36*
G01*
X102806000Y-89839500D02*
X102806000Y-89714500D01*
G75*
G02*
X102868500Y-89652000I62500J0D01*
G01*
X103568500Y-89652000D01*
G75*
G02*
X103631000Y-89714500I0J-62500D01*
G01*
X103631000Y-89839500D01*
G75*
G02*
X103568500Y-89902000I-62500J0D01*
G01*
X102868500Y-89902000D01*
G75*
G02*
X102806000Y-89839500I0J62500D01*
G01*
G37*
G36*
G01*
X102806000Y-90339500D02*
X102806000Y-90214500D01*
G75*
G02*
X102868500Y-90152000I62500J0D01*
G01*
X103568500Y-90152000D01*
G75*
G02*
X103631000Y-90214500I0J-62500D01*
G01*
X103631000Y-90339500D01*
G75*
G02*
X103568500Y-90402000I-62500J0D01*
G01*
X102868500Y-90402000D01*
G75*
G02*
X102806000Y-90339500I0J62500D01*
G01*
G37*
G36*
G01*
X103781000Y-91314500D02*
X103781000Y-90614500D01*
G75*
G02*
X103843500Y-90552000I62500J0D01*
G01*
X103968500Y-90552000D01*
G75*
G02*
X104031000Y-90614500I0J-62500D01*
G01*
X104031000Y-91314500D01*
G75*
G02*
X103968500Y-91377000I-62500J0D01*
G01*
X103843500Y-91377000D01*
G75*
G02*
X103781000Y-91314500I0J62500D01*
G01*
G37*
G36*
G01*
X104281000Y-91314500D02*
X104281000Y-90614500D01*
G75*
G02*
X104343500Y-90552000I62500J0D01*
G01*
X104468500Y-90552000D01*
G75*
G02*
X104531000Y-90614500I0J-62500D01*
G01*
X104531000Y-91314500D01*
G75*
G02*
X104468500Y-91377000I-62500J0D01*
G01*
X104343500Y-91377000D01*
G75*
G02*
X104281000Y-91314500I0J62500D01*
G01*
G37*
G36*
G01*
X104781000Y-91314500D02*
X104781000Y-90614500D01*
G75*
G02*
X104843500Y-90552000I62500J0D01*
G01*
X104968500Y-90552000D01*
G75*
G02*
X105031000Y-90614500I0J-62500D01*
G01*
X105031000Y-91314500D01*
G75*
G02*
X104968500Y-91377000I-62500J0D01*
G01*
X104843500Y-91377000D01*
G75*
G02*
X104781000Y-91314500I0J62500D01*
G01*
G37*
G36*
G01*
X105281000Y-91314500D02*
X105281000Y-90614500D01*
G75*
G02*
X105343500Y-90552000I62500J0D01*
G01*
X105468500Y-90552000D01*
G75*
G02*
X105531000Y-90614500I0J-62500D01*
G01*
X105531000Y-91314500D01*
G75*
G02*
X105468500Y-91377000I-62500J0D01*
G01*
X105343500Y-91377000D01*
G75*
G02*
X105281000Y-91314500I0J62500D01*
G01*
G37*
G36*
G01*
X105781000Y-91314500D02*
X105781000Y-90614500D01*
G75*
G02*
X105843500Y-90552000I62500J0D01*
G01*
X105968500Y-90552000D01*
G75*
G02*
X106031000Y-90614500I0J-62500D01*
G01*
X106031000Y-91314500D01*
G75*
G02*
X105968500Y-91377000I-62500J0D01*
G01*
X105843500Y-91377000D01*
G75*
G02*
X105781000Y-91314500I0J62500D01*
G01*
G37*
G36*
G01*
X106281000Y-91314500D02*
X106281000Y-90614500D01*
G75*
G02*
X106343500Y-90552000I62500J0D01*
G01*
X106468500Y-90552000D01*
G75*
G02*
X106531000Y-90614500I0J-62500D01*
G01*
X106531000Y-91314500D01*
G75*
G02*
X106468500Y-91377000I-62500J0D01*
G01*
X106343500Y-91377000D01*
G75*
G02*
X106281000Y-91314500I0J62500D01*
G01*
G37*
G36*
G01*
X106681000Y-90339500D02*
X106681000Y-90214500D01*
G75*
G02*
X106743500Y-90152000I62500J0D01*
G01*
X107443500Y-90152000D01*
G75*
G02*
X107506000Y-90214500I0J-62500D01*
G01*
X107506000Y-90339500D01*
G75*
G02*
X107443500Y-90402000I-62500J0D01*
G01*
X106743500Y-90402000D01*
G75*
G02*
X106681000Y-90339500I0J62500D01*
G01*
G37*
G36*
G01*
X106681000Y-89839500D02*
X106681000Y-89714500D01*
G75*
G02*
X106743500Y-89652000I62500J0D01*
G01*
X107443500Y-89652000D01*
G75*
G02*
X107506000Y-89714500I0J-62500D01*
G01*
X107506000Y-89839500D01*
G75*
G02*
X107443500Y-89902000I-62500J0D01*
G01*
X106743500Y-89902000D01*
G75*
G02*
X106681000Y-89839500I0J62500D01*
G01*
G37*
G36*
G01*
X106681000Y-89339500D02*
X106681000Y-89214500D01*
G75*
G02*
X106743500Y-89152000I62500J0D01*
G01*
X107443500Y-89152000D01*
G75*
G02*
X107506000Y-89214500I0J-62500D01*
G01*
X107506000Y-89339500D01*
G75*
G02*
X107443500Y-89402000I-62500J0D01*
G01*
X106743500Y-89402000D01*
G75*
G02*
X106681000Y-89339500I0J62500D01*
G01*
G37*
G36*
G01*
X106681000Y-88839500D02*
X106681000Y-88714500D01*
G75*
G02*
X106743500Y-88652000I62500J0D01*
G01*
X107443500Y-88652000D01*
G75*
G02*
X107506000Y-88714500I0J-62500D01*
G01*
X107506000Y-88839500D01*
G75*
G02*
X107443500Y-88902000I-62500J0D01*
G01*
X106743500Y-88902000D01*
G75*
G02*
X106681000Y-88839500I0J62500D01*
G01*
G37*
G36*
G01*
X106681000Y-88339500D02*
X106681000Y-88214500D01*
G75*
G02*
X106743500Y-88152000I62500J0D01*
G01*
X107443500Y-88152000D01*
G75*
G02*
X107506000Y-88214500I0J-62500D01*
G01*
X107506000Y-88339500D01*
G75*
G02*
X107443500Y-88402000I-62500J0D01*
G01*
X106743500Y-88402000D01*
G75*
G02*
X106681000Y-88339500I0J62500D01*
G01*
G37*
G36*
G01*
X106681000Y-87839500D02*
X106681000Y-87714500D01*
G75*
G02*
X106743500Y-87652000I62500J0D01*
G01*
X107443500Y-87652000D01*
G75*
G02*
X107506000Y-87714500I0J-62500D01*
G01*
X107506000Y-87839500D01*
G75*
G02*
X107443500Y-87902000I-62500J0D01*
G01*
X106743500Y-87902000D01*
G75*
G02*
X106681000Y-87839500I0J62500D01*
G01*
G37*
G36*
G01*
X106281000Y-87439500D02*
X106281000Y-86739500D01*
G75*
G02*
X106343500Y-86677000I62500J0D01*
G01*
X106468500Y-86677000D01*
G75*
G02*
X106531000Y-86739500I0J-62500D01*
G01*
X106531000Y-87439500D01*
G75*
G02*
X106468500Y-87502000I-62500J0D01*
G01*
X106343500Y-87502000D01*
G75*
G02*
X106281000Y-87439500I0J62500D01*
G01*
G37*
G36*
G01*
X105781000Y-87439500D02*
X105781000Y-86739500D01*
G75*
G02*
X105843500Y-86677000I62500J0D01*
G01*
X105968500Y-86677000D01*
G75*
G02*
X106031000Y-86739500I0J-62500D01*
G01*
X106031000Y-87439500D01*
G75*
G02*
X105968500Y-87502000I-62500J0D01*
G01*
X105843500Y-87502000D01*
G75*
G02*
X105781000Y-87439500I0J62500D01*
G01*
G37*
G36*
G01*
X105281000Y-87439500D02*
X105281000Y-86739500D01*
G75*
G02*
X105343500Y-86677000I62500J0D01*
G01*
X105468500Y-86677000D01*
G75*
G02*
X105531000Y-86739500I0J-62500D01*
G01*
X105531000Y-87439500D01*
G75*
G02*
X105468500Y-87502000I-62500J0D01*
G01*
X105343500Y-87502000D01*
G75*
G02*
X105281000Y-87439500I0J62500D01*
G01*
G37*
G36*
G01*
X104781000Y-87439500D02*
X104781000Y-86739500D01*
G75*
G02*
X104843500Y-86677000I62500J0D01*
G01*
X104968500Y-86677000D01*
G75*
G02*
X105031000Y-86739500I0J-62500D01*
G01*
X105031000Y-87439500D01*
G75*
G02*
X104968500Y-87502000I-62500J0D01*
G01*
X104843500Y-87502000D01*
G75*
G02*
X104781000Y-87439500I0J62500D01*
G01*
G37*
G36*
G01*
X104281000Y-87439500D02*
X104281000Y-86739500D01*
G75*
G02*
X104343500Y-86677000I62500J0D01*
G01*
X104468500Y-86677000D01*
G75*
G02*
X104531000Y-86739500I0J-62500D01*
G01*
X104531000Y-87439500D01*
G75*
G02*
X104468500Y-87502000I-62500J0D01*
G01*
X104343500Y-87502000D01*
G75*
G02*
X104281000Y-87439500I0J62500D01*
G01*
G37*
G36*
G01*
X103781000Y-87439500D02*
X103781000Y-86739500D01*
G75*
G02*
X103843500Y-86677000I62500J0D01*
G01*
X103968500Y-86677000D01*
G75*
G02*
X104031000Y-86739500I0J-62500D01*
G01*
X104031000Y-87439500D01*
G75*
G02*
X103968500Y-87502000I-62500J0D01*
G01*
X103843500Y-87502000D01*
G75*
G02*
X103781000Y-87439500I0J62500D01*
G01*
G37*
G36*
G01*
X103981000Y-88652001D02*
X103981000Y-88101999D01*
G75*
G02*
X104230999Y-87852000I249999J0D01*
G01*
X104781001Y-87852000D01*
G75*
G02*
X105031000Y-88101999I0J-249999D01*
G01*
X105031000Y-88652001D01*
G75*
G02*
X104781001Y-88902000I-249999J0D01*
G01*
X104230999Y-88902000D01*
G75*
G02*
X103981000Y-88652001I0J249999D01*
G01*
G37*
G36*
G01*
X103981000Y-89952001D02*
X103981000Y-89401999D01*
G75*
G02*
X104230999Y-89152000I249999J0D01*
G01*
X104781001Y-89152000D01*
G75*
G02*
X105031000Y-89401999I0J-249999D01*
G01*
X105031000Y-89952001D01*
G75*
G02*
X104781001Y-90202000I-249999J0D01*
G01*
X104230999Y-90202000D01*
G75*
G02*
X103981000Y-89952001I0J249999D01*
G01*
G37*
G36*
G01*
X105281000Y-88652001D02*
X105281000Y-88101999D01*
G75*
G02*
X105530999Y-87852000I249999J0D01*
G01*
X106081001Y-87852000D01*
G75*
G02*
X106331000Y-88101999I0J-249999D01*
G01*
X106331000Y-88652001D01*
G75*
G02*
X106081001Y-88902000I-249999J0D01*
G01*
X105530999Y-88902000D01*
G75*
G02*
X105281000Y-88652001I0J249999D01*
G01*
G37*
G36*
G01*
X105281000Y-89952001D02*
X105281000Y-89401999D01*
G75*
G02*
X105530999Y-89152000I249999J0D01*
G01*
X106081001Y-89152000D01*
G75*
G02*
X106331000Y-89401999I0J-249999D01*
G01*
X106331000Y-89952001D01*
G75*
G02*
X106081001Y-90202000I-249999J0D01*
G01*
X105530999Y-90202000D01*
G75*
G02*
X105281000Y-89952001I0J249999D01*
G01*
G37*
%TD*%
%TO.C,C1*%
G36*
G01*
X102446000Y-92910000D02*
X102786000Y-92910000D01*
G75*
G02*
X102926000Y-93050000I0J-140000D01*
G01*
X102926000Y-93330000D01*
G75*
G02*
X102786000Y-93470000I-140000J0D01*
G01*
X102446000Y-93470000D01*
G75*
G02*
X102306000Y-93330000I0J140000D01*
G01*
X102306000Y-93050000D01*
G75*
G02*
X102446000Y-92910000I140000J0D01*
G01*
G37*
G36*
G01*
X102446000Y-91950000D02*
X102786000Y-91950000D01*
G75*
G02*
X102926000Y-92090000I0J-140000D01*
G01*
X102926000Y-92370000D01*
G75*
G02*
X102786000Y-92510000I-140000J0D01*
G01*
X102446000Y-92510000D01*
G75*
G02*
X102306000Y-92370000I0J140000D01*
G01*
X102306000Y-92090000D01*
G75*
G02*
X102446000Y-91950000I140000J0D01*
G01*
G37*
%TD*%
%TO.C,C2*%
G36*
G01*
X103589000Y-91950000D02*
X103929000Y-91950000D01*
G75*
G02*
X104069000Y-92090000I0J-140000D01*
G01*
X104069000Y-92370000D01*
G75*
G02*
X103929000Y-92510000I-140000J0D01*
G01*
X103589000Y-92510000D01*
G75*
G02*
X103449000Y-92370000I0J140000D01*
G01*
X103449000Y-92090000D01*
G75*
G02*
X103589000Y-91950000I140000J0D01*
G01*
G37*
G36*
G01*
X103589000Y-92910000D02*
X103929000Y-92910000D01*
G75*
G02*
X104069000Y-93050000I0J-140000D01*
G01*
X104069000Y-93330000D01*
G75*
G02*
X103929000Y-93470000I-140000J0D01*
G01*
X103589000Y-93470000D01*
G75*
G02*
X103449000Y-93330000I0J140000D01*
G01*
X103449000Y-93050000D01*
G75*
G02*
X103589000Y-92910000I140000J0D01*
G01*
G37*
%TD*%
%TO.C,C3*%
G36*
G01*
X102151000Y-91438000D02*
X101811000Y-91438000D01*
G75*
G02*
X101671000Y-91298000I0J140000D01*
G01*
X101671000Y-91018000D01*
G75*
G02*
X101811000Y-90878000I140000J0D01*
G01*
X102151000Y-90878000D01*
G75*
G02*
X102291000Y-91018000I0J-140000D01*
G01*
X102291000Y-91298000D01*
G75*
G02*
X102151000Y-91438000I-140000J0D01*
G01*
G37*
G36*
G01*
X102151000Y-90478000D02*
X101811000Y-90478000D01*
G75*
G02*
X101671000Y-90338000I0J140000D01*
G01*
X101671000Y-90058000D01*
G75*
G02*
X101811000Y-89918000I140000J0D01*
G01*
X102151000Y-89918000D01*
G75*
G02*
X102291000Y-90058000I0J-140000D01*
G01*
X102291000Y-90338000D01*
G75*
G02*
X102151000Y-90478000I-140000J0D01*
G01*
G37*
%TD*%
%TO.C,C4*%
G36*
G01*
X101135000Y-90478000D02*
X100795000Y-90478000D01*
G75*
G02*
X100655000Y-90338000I0J140000D01*
G01*
X100655000Y-90058000D01*
G75*
G02*
X100795000Y-89918000I140000J0D01*
G01*
X101135000Y-89918000D01*
G75*
G02*
X101275000Y-90058000I0J-140000D01*
G01*
X101275000Y-90338000D01*
G75*
G02*
X101135000Y-90478000I-140000J0D01*
G01*
G37*
G36*
G01*
X101135000Y-91438000D02*
X100795000Y-91438000D01*
G75*
G02*
X100655000Y-91298000I0J140000D01*
G01*
X100655000Y-91018000D01*
G75*
G02*
X100795000Y-90878000I140000J0D01*
G01*
X101135000Y-90878000D01*
G75*
G02*
X101275000Y-91018000I0J-140000D01*
G01*
X101275000Y-91298000D01*
G75*
G02*
X101135000Y-91438000I-140000J0D01*
G01*
G37*
%TD*%
D10*
%TO.C,J1*%
X96393000Y-91368256D03*
X96393000Y-91868382D03*
X96393000Y-88868130D03*
X96393000Y-88368004D03*
D11*
X96393000Y-93368386D03*
X96393000Y-92568134D03*
D10*
X96393000Y-90868382D03*
X96393000Y-90368256D03*
X96393000Y-89868130D03*
X96393000Y-89368004D03*
D11*
X96393000Y-87668252D03*
X96393000Y-86868000D03*
%TD*%
%TO.C,R1*%
G36*
G01*
X101607600Y-95798600D02*
X101287600Y-95798600D01*
G75*
G02*
X101127600Y-95638600I0J160000D01*
G01*
X101127600Y-95243600D01*
G75*
G02*
X101287600Y-95083600I160000J0D01*
G01*
X101607600Y-95083600D01*
G75*
G02*
X101767600Y-95243600I0J-160000D01*
G01*
X101767600Y-95638600D01*
G75*
G02*
X101607600Y-95798600I-160000J0D01*
G01*
G37*
G36*
G01*
X101607600Y-94603600D02*
X101287600Y-94603600D01*
G75*
G02*
X101127600Y-94443600I0J160000D01*
G01*
X101127600Y-94048600D01*
G75*
G02*
X101287600Y-93888600I160000J0D01*
G01*
X101607600Y-93888600D01*
G75*
G02*
X101767600Y-94048600I0J-160000D01*
G01*
X101767600Y-94443600D01*
G75*
G02*
X101607600Y-94603600I-160000J0D01*
G01*
G37*
%TD*%
%TO.C,R2*%
G36*
G01*
X100490000Y-95798600D02*
X100170000Y-95798600D01*
G75*
G02*
X100010000Y-95638600I0J160000D01*
G01*
X100010000Y-95243600D01*
G75*
G02*
X100170000Y-95083600I160000J0D01*
G01*
X100490000Y-95083600D01*
G75*
G02*
X100650000Y-95243600I0J-160000D01*
G01*
X100650000Y-95638600D01*
G75*
G02*
X100490000Y-95798600I-160000J0D01*
G01*
G37*
G36*
G01*
X100490000Y-94603600D02*
X100170000Y-94603600D01*
G75*
G02*
X100010000Y-94443600I0J160000D01*
G01*
X100010000Y-94048600D01*
G75*
G02*
X100170000Y-93888600I160000J0D01*
G01*
X100490000Y-93888600D01*
G75*
G02*
X100650000Y-94048600I0J-160000D01*
G01*
X100650000Y-94443600D01*
G75*
G02*
X100490000Y-94603600I-160000J0D01*
G01*
G37*
%TD*%
%TO.C,R3*%
G36*
G01*
X104947000Y-92858000D02*
X104947000Y-92308000D01*
G75*
G02*
X105147000Y-92108000I200000J0D01*
G01*
X105547000Y-92108000D01*
G75*
G02*
X105747000Y-92308000I0J-200000D01*
G01*
X105747000Y-92858000D01*
G75*
G02*
X105547000Y-93058000I-200000J0D01*
G01*
X105147000Y-93058000D01*
G75*
G02*
X104947000Y-92858000I0J200000D01*
G01*
G37*
G36*
G01*
X106597000Y-92858000D02*
X106597000Y-92308000D01*
G75*
G02*
X106797000Y-92108000I200000J0D01*
G01*
X107197000Y-92108000D01*
G75*
G02*
X107397000Y-92308000I0J-200000D01*
G01*
X107397000Y-92858000D01*
G75*
G02*
X107197000Y-93058000I-200000J0D01*
G01*
X106797000Y-93058000D01*
G75*
G02*
X106597000Y-92858000I0J200000D01*
G01*
G37*
%TD*%
%TO.C,R4*%
G36*
G01*
X103011000Y-94074000D02*
X103011000Y-94394000D01*
G75*
G02*
X102851000Y-94554000I-160000J0D01*
G01*
X102456000Y-94554000D01*
G75*
G02*
X102296000Y-94394000I0J160000D01*
G01*
X102296000Y-94074000D01*
G75*
G02*
X102456000Y-93914000I160000J0D01*
G01*
X102851000Y-93914000D01*
G75*
G02*
X103011000Y-94074000I0J-160000D01*
G01*
G37*
G36*
G01*
X104206000Y-94074000D02*
X104206000Y-94394000D01*
G75*
G02*
X104046000Y-94554000I-160000J0D01*
G01*
X103651000Y-94554000D01*
G75*
G02*
X103491000Y-94394000I0J160000D01*
G01*
X103491000Y-94074000D01*
G75*
G02*
X103651000Y-93914000I160000J0D01*
G01*
X104046000Y-93914000D01*
G75*
G02*
X104206000Y-94074000I0J-160000D01*
G01*
G37*
%TD*%
%TO.C,R5*%
G36*
G01*
X106619000Y-94074000D02*
X106619000Y-94394000D01*
G75*
G02*
X106459000Y-94554000I-160000J0D01*
G01*
X106064000Y-94554000D01*
G75*
G02*
X105904000Y-94394000I0J160000D01*
G01*
X105904000Y-94074000D01*
G75*
G02*
X106064000Y-93914000I160000J0D01*
G01*
X106459000Y-93914000D01*
G75*
G02*
X106619000Y-94074000I0J-160000D01*
G01*
G37*
G36*
G01*
X105424000Y-94074000D02*
X105424000Y-94394000D01*
G75*
G02*
X105264000Y-94554000I-160000J0D01*
G01*
X104869000Y-94554000D01*
G75*
G02*
X104709000Y-94394000I0J160000D01*
G01*
X104709000Y-94074000D01*
G75*
G02*
X104869000Y-93914000I160000J0D01*
G01*
X105264000Y-93914000D01*
G75*
G02*
X105424000Y-94074000I0J-160000D01*
G01*
G37*
%TD*%
M02*
